<svg id="Layer_1" data-name="Layer 1" xmlns="http://www.w3.org/2000/svg" viewBox="0 0 200 200"><defs><style>.cls-1{fill:#fed304}.cls-1,.cls-2{stroke:#10172f}.cls-1,.cls-2,.cls-4,.cls-5,.cls-6{stroke-linejoin:round}.cls-2{fill:#fff}.cls-4{fill:#b0d23c}.cls-4,.cls-5,.cls-6{stroke:#111730}.cls-5{fill:#111730}.cls-6{fill:#fff6cc}</style></defs><path class="cls-1" d="M28.6 92.93l-13.5 13.51h80.59l13.5-13.51H28.6z"/><path class="cls-2" d="M95.69 130l13.5-13.5V92.93l-13.5 13.51V130zM95.69 175.96l13.5-13.5v23.56l-13.5 13.51v-23.57z"/><path stroke-miterlimit="10" fill="#fff" stroke="#10172f" d="M176.2 130v-23.56H95.61V130h28.51v45.96H95.61v23.57h80.59v-23.57h-28.51V130h28.51z"/><path class="cls-1" d="M109.11 92.93l-13.5 13.51h80.59l13.5-13.51h-80.59z"/><path class="cls-4" d="M176.2 130l13.5-13.5V92.93l-13.5 13.51V130zM176.2 175.96l13.5-13.5v23.56l-13.5 13.51v-23.57z"/><path class="cls-1" d="M95.61 175.96l13.5-13.5h15.01v13.5H95.61z"/><path class="cls-5" d="M189.7 162.46l-13.5 13.5h-28.51V130h13.5v32.46h28.51z"/><path class="cls-6" d="M137.75 37.25V13.68H57.17v23.57h28.51V83.2H57.17v23.57h80.58V83.2h-28.5V37.25h28.5z"/><path class="cls-1" d="M70.67.18l-13.5 13.5h80.58L151.26.18H70.67z"/><path class="cls-4" d="M137.75 37.25l13.51-13.5V.18l-13.51 13.5v23.57zM137.75 83.2l13.51-13.5v23.57l-13.51 13.5V83.2z"/><path class="cls-1" d="M57.17 83.2l13.5-13.5h15.01v13.5H57.17z"/><path class="cls-6" d="M176.2 130v-23.56H95.61V130h28.51v45.96H95.61v23.57h80.59v-23.57h-28.51V130h28.51z"/><path class="cls-5" d="M151.26 69.7l-13.51 13.5h-28.5V37.25h13.5V69.7h28.51z"/><path class="cls-6" d="M95.69 130v-23.56H15.1V130h28.51v45.96H15.1v23.57h80.59v-23.57H67.18V130h28.51z"/><path class="cls-1" d="M15.1 175.96l13.5-13.5h15.01v13.5H15.1z"/><path class="cls-5" d="M109.19 162.46l-13.5 13.5H67.18V130h13.5v32.46h28.51z"/></svg>