<svg viewBox="0 0 200 200" xmlns="http://www.w3.org/2000/svg" xmlns:xlink="http://www.w3.org/1999/xlink"><clipPath id="a"><path d="m145 64.13a40 40 0 0 0 -40-40v40z"/></clipPath><g fill="#111730"><rect height="199.61" rx="2" width="4" x="98" y=".25"/><path d="m85.13 122.36h4a0 0 0 0 1 0 0v67a2 2 0 0 1 -2 2 2 2 0 0 1 -2-2v-67a0 0 0 0 1 0 0z" transform="matrix(.96588064 .25898763 -.25898763 .96588064 43.6 -17.22)"/><path d="m112.8 122.36a2 2 0 0 1 2 2v67a0 0 0 0 1 0 0h-4a0 0 0 0 1 0 0v-67a2 2 0 0 1 2-2z" transform="matrix(-.96588064 .25898763 -.25898763 -.96588064 262.39 279.14)"/></g><rect fill="#fff0e6" height="113.14" rx="10" width="170.58" x="14.71" y="11.97"/><path d="m175.29 125.61h-150.58a10.51 10.51 0 0 1 -10.5-10.5v-93.11a10.51 10.51 0 0 1 10.5-10.5h150.58a10.51 10.51 0 0 1 10.5 10.5v93.14a10.51 10.51 0 0 1 -10.5 10.47zm-150.58-113.14a9.51 9.51 0 0 0 -9.5 9.5v93.14a9.51 9.51 0 0 0 9.5 9.5h150.58a9.51 9.51 0 0 0 9.5-9.5v-93.11a9.51 9.51 0 0 0 -9.5-9.5z" fill="#111730"/><path d="m145 64.13a40 40 0 0 0 -40-40v40z" fill="#ffd10c"/><path d="m145.5 64.63h-41v-41h.5a40.55 40.55 0 0 1 40.5 40.5zm-40-1h39a39.56 39.56 0 0 0 -39-39z" fill="#111730"/><rect fill="#fff0e6" height="113.14" rx="10" width="170.58" x="14.71" y="11.97"/><path d="m175.29 125.61h-150.58a10.51 10.51 0 0 1 -10.5-10.5v-93.11a10.51 10.51 0 0 1 10.5-10.5h150.58a10.51 10.51 0 0 1 10.5 10.5v93.14a10.51 10.51 0 0 1 -10.5 10.47zm-150.58-113.14a9.51 9.51 0 0 0 -9.5 9.5v93.14a9.51 9.51 0 0 0 9.5 9.5h150.58a9.51 9.51 0 0 0 9.5-9.5v-93.11a9.51 9.51 0 0 0 -9.5-9.5z" fill="#111730"/><path d="m140 69.15a40 40 0 0 1 -40 40v-40z" fill="#afd13e"/><path d="m100 109.65h-.5v-41h41v.5a40.54 40.54 0 0 1 -40.5 40.5zm.5-40v39a39.56 39.56 0 0 0 39-39z" fill="#111730"/><path d="m100 69.13v-40a40 40 0 0 0 0 80z" fill="#74beea"/><path d="m100.5 109.63h-.5a40.5 40.5 0 0 1 0-81h.5zm-1-80a39.5 39.5 0 0 0 0 79z" fill="#111730"/><circle cx="147.86" cy="96.95" fill="#74beea" r="2"/><path d="m147.86 99.45a2.5 2.5 0 1 1 2.5-2.5 2.5 2.5 0 0 1 -2.5 2.5zm0-4a1.5 1.5 0 1 0 1.5 1.5 1.5 1.5 0 0 0 -1.5-1.5z" fill="#111730"/><path d="m152 94.95h23.04v4h-23.04z" fill="#111730"/><circle cx="147.86" cy="104.29" fill="#ffd10c" r="2"/><path d="m147.86 106.79a2.5 2.5 0 1 1 2.5-2.5 2.5 2.5 0 0 1 -2.5 2.5zm0-4a1.5 1.5 0 1 0 1.5 1.5 1.5 1.5 0 0 0 -1.5-1.5z" fill="#111730"/><path d="m152 102.29h23.04v4h-23.04z" fill="#111730"/><circle cx="147.86" cy="111.63" fill="#afd13e" r="2"/><path d="m147.86 114.13a2.5 2.5 0 1 1 2.5-2.5 2.5 2.5 0 0 1 -2.5 2.5zm0-4a1.5 1.5 0 1 0 1.5 1.5 1.51 1.51 0 0 0 -1.5-1.5z" fill="#111730"/><path d="m152 109.63h23.04v4h-23.04z" fill="#111730"/><path d="m145 64.13a40 40 0 0 0 -40-40v40z" fill="#ffd10c"/><path d="m145.5 64.63h-41v-41h.5a40.55 40.55 0 0 1 40.5 40.5zm-40-1h39a39.56 39.56 0 0 0 -39-39z" fill="#111730"/><g clip-path="url(#a)"><path d="m142.36 23.27h4v4h-4z" fill="none"/><path d="m142.36 23.27h1v1h-1z" fill="#10172f"/><path d="m144.36 25.27h1v1h-1z" fill="#10172f"/><path d="m142.36 27.27h4v4h-4z" fill="none"/><path d="m142.36 27.27h1v1h-1z" fill="#10172f"/><path d="m144.36 29.27h1v1h-1z" fill="#10172f"/><path d="m142.36 31.27h4v4h-4z" fill="none"/><path d="m142.36 31.27h1v1h-1z" fill="#10172f"/><path d="m144.36 33.27h1v1h-1z" fill="#10172f"/><path d="m142.36 35.27h4v4h-4z" fill="none"/><path d="m142.36 35.27h1v1h-1z" fill="#10172f"/><path d="m144.36 37.27h1v1h-1z" fill="#10172f"/><path d="m142.36 39.27h4v4h-4z" fill="none"/><path d="m142.36 39.27h1v1h-1z" fill="#10172f"/><path d="m144.36 41.27h1v1h-1z" fill="#10172f"/><path d="m142.36 43.27h4v4h-4z" fill="none"/><path d="m142.36 43.27h1v1h-1z" fill="#10172f"/><path d="m144.36 45.27h1v1h-1z" fill="#10172f"/><path d="m142.36 47.27h4v4h-4z" fill="none"/><path d="m142.36 47.27h1v1h-1z" fill="#10172f"/><path d="m144.36 49.27h1v1h-1z" fill="#10172f"/><path d="m142.36 51.27h4v4h-4z" fill="none"/><path d="m142.36 51.27h1v1h-1z" fill="#10172f"/><path d="m144.36 53.27h1v1h-1z" fill="#10172f"/><path d="m142.36 55.27h4v4h-4z" fill="none"/><path d="m142.36 55.27h1v1h-1z" fill="#10172f"/><path d="m144.36 57.27h1v1h-1z" fill="#10172f"/><path d="m142.36 59.27h4v4h-4z" fill="none"/><path d="m142.36 59.27h1v1h-1z" fill="#10172f"/><path d="m144.36 61.27h1v1h-1z" fill="#10172f"/><path d="m142.36 63.27h4v4h-4z" fill="none"/><path d="m142.36 63.27h1v1h-1z" fill="#10172f"/><path d="m144.36 65.27h1v1h-1z" fill="#10172f"/><path d="m138.36 23.27h4v4h-4z" fill="none"/><path d="m138.36 23.27h1v1h-1z" fill="#10172f"/><path d="m140.36 25.27h1v1h-1z" fill="#10172f"/><path d="m138.36 27.27h4v4h-4z" fill="none"/><path d="m138.36 27.27h1v1h-1z" fill="#10172f"/><path d="m140.36 29.27h1v1h-1z" fill="#10172f"/><path d="m138.36 31.27h4v4h-4z" fill="none"/><path d="m138.36 31.27h1v1h-1z" fill="#10172f"/><path d="m140.36 33.27h1v1h-1z" fill="#10172f"/><path d="m138.36 35.27h4v4h-4z" fill="none"/><path d="m138.36 35.27h1v1h-1z" fill="#10172f"/><path d="m140.36 37.27h1v1h-1z" fill="#10172f"/><path d="m138.36 39.27h4v4h-4z" fill="none"/><path d="m138.36 39.27h1v1h-1z" fill="#10172f"/><path d="m140.36 41.27h1v1h-1z" fill="#10172f"/><path d="m138.36 43.27h4v4h-4z" fill="none"/><path d="m138.36 43.27h1v1h-1z" fill="#10172f"/><path d="m140.36 45.27h1v1h-1z" fill="#10172f"/><path d="m138.36 47.27h4v4h-4z" fill="none"/><path d="m138.36 47.27h1v1h-1z" fill="#10172f"/><path d="m140.36 49.27h1v1h-1z" fill="#10172f"/><path d="m138.36 51.27h4v4h-4z" fill="none"/><path d="m138.36 51.27h1v1h-1z" fill="#10172f"/><path d="m140.36 53.27h1v1h-1z" fill="#10172f"/><path d="m138.36 55.27h4v4h-4z" fill="none"/><path d="m138.36 55.27h1v1h-1z" fill="#10172f"/><path d="m140.36 57.27h1v1h-1z" fill="#10172f"/><path d="m138.36 59.27h4v4h-4z" fill="none"/><path d="m138.36 59.27h1v1h-1z" fill="#10172f"/><path d="m140.36 61.27h1v1h-1z" fill="#10172f"/><path d="m138.36 63.27h4v4h-4z" fill="none"/><path d="m138.36 63.27h1v1h-1z" fill="#10172f"/><path d="m140.36 65.27h1v1h-1z" fill="#10172f"/><path d="m134.36 23.27h4v4h-4z" fill="none"/><path d="m134.36 23.27h1v1h-1z" fill="#10172f"/><path d="m136.36 25.27h1v1h-1z" fill="#10172f"/><path d="m134.36 27.27h4v4h-4z" fill="none"/><path d="m134.36 27.27h1v1h-1z" fill="#10172f"/><path d="m136.36 29.27h1v1h-1z" fill="#10172f"/><path d="m134.36 31.27h4v4h-4z" fill="none"/><path d="m134.36 31.27h1v1h-1z" fill="#10172f"/><path d="m136.36 33.27h1v1h-1z" fill="#10172f"/><path d="m134.36 35.27h4v4h-4z" fill="none"/><path d="m134.36 35.27h1v1h-1z" fill="#10172f"/><path d="m136.36 37.27h1v1h-1z" fill="#10172f"/><path d="m134.36 39.27h4v4h-4z" fill="none"/><path d="m134.36 39.27h1v1h-1z" fill="#10172f"/><path d="m136.36 41.27h1v1h-1z" fill="#10172f"/><path d="m134.36 43.27h4v4h-4z" fill="none"/><path d="m134.36 43.27h1v1h-1z" fill="#10172f"/><path d="m136.36 45.27h1v1h-1z" fill="#10172f"/><path d="m134.36 47.27h4v4h-4z" fill="none"/><path d="m134.36 47.27h1v1h-1z" fill="#10172f"/><path d="m136.36 49.27h1v1h-1z" fill="#10172f"/><path d="m134.36 51.27h4v4h-4z" fill="none"/><path d="m134.36 51.27h1v1h-1z" fill="#10172f"/><path d="m136.36 53.27h1v1h-1z" fill="#10172f"/><path d="m134.36 55.27h4v4h-4z" fill="none"/><path d="m134.36 55.27h1v1h-1z" fill="#10172f"/><path d="m136.36 57.27h1v1h-1z" fill="#10172f"/><path d="m134.36 59.27h4v4h-4z" fill="none"/><path d="m134.36 59.27h1v1h-1z" fill="#10172f"/><path d="m136.36 61.27h1v1h-1z" fill="#10172f"/><path d="m134.36 63.27h4v4h-4z" fill="none"/><path d="m134.36 63.27h1v1h-1z" fill="#10172f"/><path d="m136.36 65.27h1v1h-1z" fill="#10172f"/><path d="m130.36 23.27h4v4h-4z" fill="none"/><path d="m130.36 23.27h1v1h-1z" fill="#10172f"/><path d="m132.36 25.27h1v1h-1z" fill="#10172f"/><path d="m130.36 27.27h4v4h-4z" fill="none"/><path d="m130.36 27.27h1v1h-1z" fill="#10172f"/><path d="m132.36 29.27h1v1h-1z" fill="#10172f"/><path d="m130.36 31.27h4v4h-4z" fill="none"/><path d="m130.36 31.27h1v1h-1z" fill="#10172f"/><path d="m132.36 33.27h1v1h-1z" fill="#10172f"/><path d="m130.36 35.27h4v4h-4z" fill="none"/><path d="m130.36 35.27h1v1h-1z" fill="#10172f"/><path d="m132.36 37.27h1v1h-1z" fill="#10172f"/><path d="m130.36 39.27h4v4h-4z" fill="none"/><path d="m130.36 39.27h1v1h-1z" fill="#10172f"/><path d="m132.36 41.27h1v1h-1z" fill="#10172f"/><path d="m130.36 43.27h4v4h-4z" fill="none"/><path d="m130.36 43.27h1v1h-1z" fill="#10172f"/><path d="m132.36 45.27h1v1h-1z" fill="#10172f"/><path d="m130.36 47.27h4v4h-4z" fill="none"/><path d="m130.36 47.27h1v1h-1z" fill="#10172f"/><path d="m132.36 49.27h1v1h-1z" fill="#10172f"/><path d="m130.36 51.27h4v4h-4z" fill="none"/><path d="m130.36 51.27h1v1h-1z" fill="#10172f"/><path d="m132.36 53.27h1v1h-1z" fill="#10172f"/><path d="m130.36 55.27h4v4h-4z" fill="none"/><path d="m130.36 55.27h1v1h-1z" fill="#10172f"/><path d="m132.36 57.27h1v1h-1z" fill="#10172f"/><path d="m130.36 59.27h4v4h-4z" fill="none"/><path d="m130.36 59.27h1v1h-1z" fill="#10172f"/><path d="m132.36 61.27h1v1h-1z" fill="#10172f"/><path d="m130.36 63.27h4v4h-4z" fill="none"/><path d="m130.36 63.27h1v1h-1z" fill="#10172f"/><path d="m132.36 65.27h1v1h-1z" fill="#10172f"/><path d="m126.36 23.27h4v4h-4z" fill="none"/><path d="m126.36 23.27h1v1h-1z" fill="#10172f"/><path d="m128.36 25.27h1v1h-1z" fill="#10172f"/><path d="m126.36 27.27h4v4h-4z" fill="none"/><path d="m126.36 27.27h1v1h-1z" fill="#10172f"/><path d="m128.36 29.27h1v1h-1z" fill="#10172f"/><path d="m126.36 31.27h4v4h-4z" fill="none"/><path d="m126.36 31.27h1v1h-1z" fill="#10172f"/><path d="m128.36 33.27h1v1h-1z" fill="#10172f"/><path d="m126.36 35.27h4v4h-4z" fill="none"/><path d="m126.36 35.27h1v1h-1z" fill="#10172f"/><path d="m128.36 37.27h1v1h-1z" fill="#10172f"/><path d="m126.36 39.27h4v4h-4z" fill="none"/><path d="m126.36 39.27h1v1h-1z" fill="#10172f"/><path d="m128.36 41.27h1v1h-1z" fill="#10172f"/><path d="m126.36 43.27h4v4h-4z" fill="none"/><path d="m126.36 43.27h1v1h-1z" fill="#10172f"/><path d="m128.36 45.27h1v1h-1z" fill="#10172f"/><path d="m126.36 47.27h4v4h-4z" fill="none"/><path d="m126.36 47.27h1v1h-1z" fill="#10172f"/><path d="m128.36 49.27h1v1h-1z" fill="#10172f"/><path d="m126.36 51.27h4v4h-4z" fill="none"/><path d="m126.36 51.27h1v1h-1z" fill="#10172f"/><path d="m128.36 53.27h1v1h-1z" fill="#10172f"/><path d="m126.36 55.27h4v4h-4z" fill="none"/><path d="m126.36 55.27h1v1h-1z" fill="#10172f"/><path d="m128.36 57.27h1v1h-1z" fill="#10172f"/><path d="m126.36 59.27h4v4h-4z" fill="none"/><path d="m126.36 59.27h1v1h-1z" fill="#10172f"/><path d="m128.36 61.27h1v1h-1z" fill="#10172f"/><path d="m126.36 63.27h4v4h-4z" fill="none"/><path d="m126.36 63.27h1v1h-1z" fill="#10172f"/><path d="m128.36 65.27h1v1h-1z" fill="#10172f"/><path d="m122.36 23.27h4v4h-4z" fill="none"/><path d="m122.36 23.27h1v1h-1z" fill="#10172f"/><path d="m124.36 25.27h1v1h-1z" fill="#10172f"/><path d="m122.36 27.27h4v4h-4z" fill="none"/><path d="m122.36 27.27h1v1h-1z" fill="#10172f"/><path d="m124.36 29.27h1v1h-1z" fill="#10172f"/><path d="m122.36 31.27h4v4h-4z" fill="none"/><path d="m122.36 31.27h1v1h-1z" fill="#10172f"/><path d="m124.36 33.27h1v1h-1z" fill="#10172f"/><path d="m122.36 35.27h4v4h-4z" fill="none"/><path d="m122.36 35.27h1v1h-1z" fill="#10172f"/><path d="m124.36 37.27h1v1h-1z" fill="#10172f"/><path d="m122.36 39.27h4v4h-4z" fill="none"/><path d="m122.36 39.27h1v1h-1z" fill="#10172f"/><path d="m124.36 41.27h1v1h-1z" fill="#10172f"/><path d="m122.36 43.27h4v4h-4z" fill="none"/><path d="m122.36 43.27h1v1h-1z" fill="#10172f"/><path d="m124.36 45.27h1v1h-1z" fill="#10172f"/><path d="m122.36 47.27h4v4h-4z" fill="none"/><path d="m122.36 47.27h1v1h-1z" fill="#10172f"/><path d="m124.36 49.27h1v1h-1z" fill="#10172f"/><path d="m122.36 51.27h4v4h-4z" fill="none"/><path d="m122.36 51.27h1v1h-1z" fill="#10172f"/><path d="m124.36 53.27h1v1h-1z" fill="#10172f"/><path d="m122.36 55.27h4v4h-4z" fill="none"/><path d="m122.36 55.27h1v1h-1z" fill="#10172f"/><path d="m124.36 57.27h1v1h-1z" fill="#10172f"/><path d="m122.36 59.27h4v4h-4z" fill="none"/><path d="m122.36 59.27h1v1h-1z" fill="#10172f"/><path d="m124.36 61.27h1v1h-1z" fill="#10172f"/><path d="m122.36 63.27h4v4h-4z" fill="none"/><path d="m122.36 63.27h1v1h-1z" fill="#10172f"/><path d="m124.36 65.27h1v1h-1z" fill="#10172f"/><path d="m118.36 23.27h4v4h-4z" fill="none"/><path d="m118.36 23.27h1v1h-1z" fill="#10172f"/><path d="m120.36 25.27h1v1h-1z" fill="#10172f"/><path d="m118.36 27.27h4v4h-4z" fill="none"/><path d="m118.36 27.27h1v1h-1z" fill="#10172f"/><path d="m120.36 29.27h1v1h-1z" fill="#10172f"/><path d="m118.36 31.27h4v4h-4z" fill="none"/><path d="m118.36 31.27h1v1h-1z" fill="#10172f"/><path d="m120.36 33.27h1v1h-1z" fill="#10172f"/><path d="m118.36 35.27h4v4h-4z" fill="none"/><path d="m118.36 35.27h1v1h-1z" fill="#10172f"/><path d="m120.36 37.27h1v1h-1z" fill="#10172f"/><path d="m118.36 39.27h4v4h-4z" fill="none"/><path d="m118.36 39.27h1v1h-1z" fill="#10172f"/><path d="m120.36 41.27h1v1h-1z" fill="#10172f"/><path d="m118.36 43.27h4v4h-4z" fill="none"/><path d="m118.36 43.27h1v1h-1z" fill="#10172f"/><path d="m120.36 45.27h1v1h-1z" fill="#10172f"/><path d="m118.36 47.27h4v4h-4z" fill="none"/><path d="m118.36 47.27h1v1h-1z" fill="#10172f"/><path d="m120.36 49.27h1v1h-1z" fill="#10172f"/><path d="m118.36 51.27h4v4h-4z" fill="none"/><path d="m118.36 51.27h1v1h-1z" fill="#10172f"/><path d="m120.36 53.27h1v1h-1z" fill="#10172f"/><path d="m118.36 55.27h4v4h-4z" fill="none"/><path d="m118.36 55.27h1v1h-1z" fill="#10172f"/><path d="m120.36 57.27h1v1h-1z" fill="#10172f"/><path d="m118.36 59.27h4v4h-4z" fill="none"/><path d="m118.36 59.27h1v1h-1z" fill="#10172f"/><path d="m120.36 61.27h1v1h-1z" fill="#10172f"/><path d="m118.36 63.27h4v4h-4z" fill="none"/><path d="m118.36 63.27h1v1h-1z" fill="#10172f"/><path d="m120.36 65.27h1v1h-1z" fill="#10172f"/><path d="m114.36 23.27h4v4h-4z" fill="none"/><path d="m114.36 23.27h1v1h-1z" fill="#10172f"/><path d="m116.36 25.27h1v1h-1z" fill="#10172f"/><path d="m114.36 27.27h4v4h-4z" fill="none"/><path d="m114.36 27.27h1v1h-1z" fill="#10172f"/><path d="m116.36 29.27h1v1h-1z" fill="#10172f"/><path d="m114.36 31.27h4v4h-4z" fill="none"/><path d="m114.36 31.27h1v1h-1z" fill="#10172f"/><path d="m116.36 33.27h1v1h-1z" fill="#10172f"/><path d="m114.36 35.27h4v4h-4z" fill="none"/><path d="m114.36 35.27h1v1h-1z" fill="#10172f"/><path d="m116.36 37.27h1v1h-1z" fill="#10172f"/><path d="m114.36 39.27h4v4h-4z" fill="none"/><path d="m114.36 39.27h1v1h-1z" fill="#10172f"/><path d="m116.36 41.27h1v1h-1z" fill="#10172f"/><path d="m114.36 43.27h4v4h-4z" fill="none"/><path d="m114.36 43.27h1v1h-1z" fill="#10172f"/><path d="m116.36 45.27h1v1h-1z" fill="#10172f"/><path d="m114.36 47.27h4v4h-4z" fill="none"/><path d="m114.36 47.27h1v1h-1z" fill="#10172f"/><path d="m116.36 49.27h1v1h-1z" fill="#10172f"/><path d="m114.36 51.27h4v4h-4z" fill="none"/><path d="m114.36 51.27h1v1h-1z" fill="#10172f"/><path d="m116.36 53.27h1v1h-1z" fill="#10172f"/><path d="m114.36 55.27h4v4h-4z" fill="none"/><path d="m114.36 55.27h1v1h-1z" fill="#10172f"/><path d="m116.36 57.27h1v1h-1z" fill="#10172f"/><path d="m114.36 59.27h4v4h-4z" fill="none"/><path d="m114.36 59.27h1v1h-1z" fill="#10172f"/><path d="m116.36 61.27h1v1h-1z" fill="#10172f"/><path d="m114.36 63.27h4v4h-4z" fill="none"/><path d="m114.36 63.27h1v1h-1z" fill="#10172f"/><path d="m116.36 65.27h1v1h-1z" fill="#10172f"/><path d="m110.36 23.27h4v4h-4z" fill="none"/><path d="m110.36 23.27h1v1h-1z" fill="#10172f"/><path d="m112.36 25.27h1v1h-1z" fill="#10172f"/><path d="m110.36 27.27h4v4h-4z" fill="none"/><path d="m110.36 27.27h1v1h-1z" fill="#10172f"/><path d="m112.36 29.27h1v1h-1z" fill="#10172f"/><path d="m110.36 31.27h4v4h-4z" fill="none"/><path d="m110.36 31.27h1v1h-1z" fill="#10172f"/><path d="m112.36 33.27h1v1h-1z" fill="#10172f"/><path d="m110.36 35.27h4v4h-4z" fill="none"/><path d="m110.36 35.27h1v1h-1z" fill="#10172f"/><path d="m112.36 37.27h1v1h-1z" fill="#10172f"/><path d="m110.36 39.27h4v4h-4z" fill="none"/><path d="m110.36 39.27h1v1h-1z" fill="#10172f"/><path d="m112.36 41.27h1v1h-1z" fill="#10172f"/><path d="m110.36 43.27h4v4h-4z" fill="none"/><path d="m110.36 43.27h1v1h-1z" fill="#10172f"/><path d="m112.36 45.27h1v1h-1z" fill="#10172f"/><path d="m110.36 47.27h4v4h-4z" fill="none"/><path d="m110.36 47.27h1v1h-1z" fill="#10172f"/><path d="m112.36 49.27h1v1h-1z" fill="#10172f"/><path d="m110.36 51.27h4v4h-4z" fill="none"/><path d="m110.36 51.27h1v1h-1z" fill="#10172f"/><path d="m112.36 53.27h1v1h-1z" fill="#10172f"/><path d="m110.36 55.27h4v4h-4z" fill="none"/><path d="m110.36 55.27h1v1h-1z" fill="#10172f"/><path d="m112.36 57.27h1v1h-1z" fill="#10172f"/><path d="m110.36 59.27h4v4h-4z" fill="none"/><path d="m110.36 59.27h1v1h-1z" fill="#10172f"/><path d="m112.36 61.27h1v1h-1z" fill="#10172f"/><path d="m110.36 63.27h4v4h-4z" fill="none"/><path d="m110.36 63.27h1v1h-1z" fill="#10172f"/><path d="m112.36 65.27h1v1h-1z" fill="#10172f"/><path d="m106.36 23.27h4v4h-4z" fill="none"/><path d="m106.36 23.27h1v1h-1z" fill="#10172f"/><path d="m108.36 25.27h1v1h-1z" fill="#10172f"/><path d="m106.36 27.27h4v4h-4z" fill="none"/><path d="m106.36 27.27h1v1h-1z" fill="#10172f"/><path d="m108.36 29.27h1v1h-1z" fill="#10172f"/><path d="m106.36 31.27h4v4h-4z" fill="none"/><path d="m106.36 31.27h1v1h-1z" fill="#10172f"/><path d="m108.36 33.27h1v1h-1z" fill="#10172f"/><path d="m106.36 35.27h4v4h-4z" fill="none"/><path d="m106.36 35.27h1v1h-1z" fill="#10172f"/><path d="m108.36 37.27h1v1h-1z" fill="#10172f"/><path d="m106.36 39.27h4v4h-4z" fill="none"/><path d="m106.36 39.27h1v1h-1z" fill="#10172f"/><path d="m108.36 41.27h1v1h-1z" fill="#10172f"/><path d="m106.36 43.27h4v4h-4z" fill="none"/><path d="m106.36 43.27h1v1h-1z" fill="#10172f"/><path d="m108.36 45.27h1v1h-1z" fill="#10172f"/><path d="m106.36 47.27h4v4h-4z" fill="none"/><path d="m106.36 47.27h1v1h-1z" fill="#10172f"/><path d="m108.36 49.27h1v1h-1z" fill="#10172f"/><path d="m106.36 51.27h4v4h-4z" fill="none"/><path d="m106.36 51.27h1v1h-1z" fill="#10172f"/><path d="m108.36 53.27h1v1h-1z" fill="#10172f"/><path d="m106.36 55.27h4v4h-4z" fill="none"/><path d="m106.36 55.27h1v1h-1z" fill="#10172f"/><path d="m108.36 57.27h1v1h-1z" fill="#10172f"/><path d="m106.36 59.27h4v4h-4z" fill="none"/><path d="m106.36 59.27h1v1h-1z" fill="#10172f"/><path d="m108.36 61.27h1v1h-1z" fill="#10172f"/><path d="m106.36 63.27h4v4h-4z" fill="none"/><path d="m106.36 63.27h1v1h-1z" fill="#10172f"/><path d="m108.36 65.27h1v1h-1z" fill="#10172f"/><path d="m102.36 23.27h4v4h-4z" fill="none"/><path d="m102.36 23.27h1v1h-1z" fill="#10172f"/><path d="m104.36 25.27h1v1h-1z" fill="#10172f"/><path d="m102.36 27.27h4v4h-4z" fill="none"/><path d="m102.36 27.27h1v1h-1z" fill="#10172f"/><path d="m104.36 29.27h1v1h-1z" fill="#10172f"/><path d="m102.36 31.27h4v4h-4z" fill="none"/><path d="m102.36 31.27h1v1h-1z" fill="#10172f"/><path d="m104.36 33.27h1v1h-1z" fill="#10172f"/><path d="m102.36 35.27h4v4h-4z" fill="none"/><path d="m102.36 35.27h1v1h-1z" fill="#10172f"/><path d="m104.36 37.27h1v1h-1z" fill="#10172f"/><path d="m102.36 39.27h4v4h-4z" fill="none"/><path d="m102.36 39.27h1v1h-1z" fill="#10172f"/><path d="m104.36 41.27h1v1h-1z" fill="#10172f"/><path d="m102.36 43.27h4v4h-4z" fill="none"/><path d="m102.36 43.27h1v1h-1z" fill="#10172f"/><path d="m104.36 45.27h1v1h-1z" fill="#10172f"/><path d="m102.36 47.27h4v4h-4z" fill="none"/><path d="m102.36 47.27h1v1h-1z" fill="#10172f"/><path d="m104.36 49.27h1v1h-1z" fill="#10172f"/><path d="m102.36 51.27h4v4h-4z" fill="none"/><path d="m102.36 51.27h1v1h-1z" fill="#10172f"/><path d="m104.36 53.27h1v1h-1z" fill="#10172f"/><path d="m102.36 55.27h4v4h-4z" fill="none"/><path d="m102.36 55.27h1v1h-1z" fill="#10172f"/><path d="m104.36 57.27h1v1h-1z" fill="#10172f"/><path d="m102.36 59.27h4v4h-4z" fill="none"/><path d="m102.36 59.27h1v1h-1z" fill="#10172f"/><path d="m104.36 61.27h1v1h-1z" fill="#10172f"/><path d="m102.36 63.27h4v4h-4z" fill="none"/><g fill="#10172f"><path d="m102.36 63.27h1v1h-1z"/><path d="m104.36 65.27h1v1h-1z"/></g></g></svg>