<svg id="Layer_1" data-name="Layer 1" xmlns="http://www.w3.org/2000/svg" xmlns:xlink="http://www.w3.org/1999/xlink" viewBox="0 0 200 200"><defs><style>.cls-1{fill:none;}.cls-2{fill:#0f172f;}.cls-3{fill:#fff;}.cls-4{fill:#231f20;}.cls-5{fill:#111730;}.cls-6{fill:#fff9e6;}.cls-7{fill:#ffd300;}.cls-8{fill:#aee938;}.cls-9{fill:#66c4ff;}.cls-10{clip-path:url(#clip-path);}.cls-11{fill:#10172f;}</style><clipPath id="clip-path"><path class="cls-1" d="M123.75,11.43H102.11a11,11,0,0,0-22,0H58.48a4.4,4.4,0,0,0-4.4,4.4V29.21h74.07V15.83A4.4,4.4,0,0,0,123.75,11.43ZM91.11,16.77a5.26,5.26,0,1,1,5.26-5.26A5.26,5.26,0,0,1,91.11,16.77Z"/></clipPath></defs><rect class="cls-2" x="25.11" y="16.93" width="132" height="167.2" rx="4"/><path class="cls-2" d="M153.11,184.63h-124a4.51,4.51,0,0,1-4.5-4.5V20.93a4.51,4.51,0,0,1,4.5-4.5h124a4.51,4.51,0,0,1,4.5,4.5v159.2A4.51,4.51,0,0,1,153.11,184.63Zm-124-167.2a3.5,3.5,0,0,0-3.5,3.5v159.2a3.5,3.5,0,0,0,3.5,3.5h124a3.5,3.5,0,0,0,3.5-3.5V20.93a3.5,3.5,0,0,0-3.5-3.5Z"/><rect class="cls-3" x="33.52" y="25.02" width="115.18" height="149.93" rx="2.2"/><path class="cls-4" d="M146.5,175.45H35.72a2.71,2.71,0,0,1-2.7-2.7V27.22a2.71,2.71,0,0,1,2.7-2.7H146.5a2.7,2.7,0,0,1,2.7,2.7V172.75A2.7,2.7,0,0,1,146.5,175.45ZM35.72,25.52a1.7,1.7,0,0,0-1.7,1.7V172.75a1.71,1.71,0,0,0,1.7,1.7H146.5a1.7,1.7,0,0,0,1.7-1.7V27.22a1.7,1.7,0,0,0-1.7-1.7Z"/><path class="cls-3" d="M123.75,11.43H102.11a11,11,0,0,0-22,0H58.48a4.4,4.4,0,0,0-4.4,4.4V29.21h74.07V15.83A4.4,4.4,0,0,0,123.75,11.43ZM91.11,16.77a5.26,5.26,0,1,1,5.26-5.26A5.26,5.26,0,0,1,91.11,16.77Z"/><path class="cls-2" d="M128.65,29.71H53.58V15.83a4.91,4.91,0,0,1,4.9-4.9H79.63a11.49,11.49,0,0,1,23,0h21.16a4.91,4.91,0,0,1,4.9,4.9Zm-74.07-1h73.07V15.83a3.91,3.91,0,0,0-3.9-3.9H101.61v-.49a10.5,10.5,0,0,0-21,0v.49H58.48a3.91,3.91,0,0,0-3.9,3.9ZM91.11,17.27a5.76,5.76,0,1,1,5.76-5.76A5.77,5.77,0,0,1,91.11,17.27Zm0-10.52a4.76,4.76,0,1,0,4.76,4.76A4.76,4.76,0,0,0,91.11,6.75Z"/><rect class="cls-5" x="45.12" y="113.24" width="44" height="4.4" rx="2.2"/><rect class="cls-5" x="45.12" y="127.37" width="91.97" height="4.4" rx="2.2"/><rect class="cls-5" x="45.12" y="141.51" width="91.97" height="4.4" rx="2.2"/><rect class="cls-5" x="45.12" y="155.64" width="76.18" height="4.4" rx="2.2"/><rect class="cls-6" x="44.96" y="37.09" width="91.5" height="64.58"/><path class="cls-5" d="M137,102.17H44.46V36.59H137Zm-91.5-1H136V37.59H45.46Z"/><rect class="cls-7" x="65.69" y="73.07" width="12.42" height="19.82"/><path class="cls-5" d="M78.61,93.4H65.19V72.57H78.61Zm-12.42-1H77.61V73.57H66.19Z"/><rect class="cls-8" x="84.95" y="45.78" width="12.42" height="47.12"/><path class="cls-5" d="M97.87,93.4H84.45V45.28H97.87Zm-12.42-1H96.87V46.28H85.45Z"/><rect class="cls-9" x="104.11" y="63.98" width="12.42" height="28.92"/><path class="cls-5" d="M117,93.4H103.61V63.48H117Zm-12.43-1H116V64.48H104.61Z"/><g class="cls-10"><rect class="cls-1" x="127.57" y="-2.74" width="4" height="4"/><rect class="cls-11" x="129.57" y="-0.74" width="1" height="1"/><rect class="cls-1" x="127.57" y="1.26" width="4" height="4"/><rect class="cls-11" x="127.57" y="1.26" width="1" height="1"/><rect class="cls-11" x="129.57" y="3.26" width="1" height="1"/><rect class="cls-1" x="127.57" y="5.26" width="4" height="4"/><rect class="cls-11" x="127.57" y="5.26" width="1" height="1"/><rect class="cls-11" x="129.57" y="7.26" width="1" height="1"/><rect class="cls-1" x="127.57" y="9.26" width="4" height="4"/><rect class="cls-11" x="127.57" y="9.26" width="1" height="1"/><rect class="cls-11" x="129.57" y="11.26" width="1" height="1"/><rect class="cls-1" x="127.57" y="13.26" width="4" height="4"/><rect class="cls-11" x="127.57" y="13.26" width="1" height="1"/><rect class="cls-11" x="129.57" y="15.26" width="1" height="1"/><rect class="cls-1" x="127.57" y="17.26" width="4" height="4"/><rect class="cls-11" x="127.57" y="17.26" width="1" height="1"/><rect class="cls-11" x="129.57" y="19.26" width="1" height="1"/><rect class="cls-1" x="127.57" y="21.26" width="4" height="4"/><rect class="cls-11" x="127.57" y="21.26" width="1" height="1"/><rect class="cls-11" x="129.57" y="23.26" width="1" height="1"/><rect class="cls-1" x="127.57" y="25.26" width="4" height="4"/><rect class="cls-11" x="127.57" y="25.26" width="1" height="1"/><rect class="cls-11" x="129.57" y="27.26" width="1" height="1"/><rect class="cls-1" x="123.57" y="-2.74" width="4" height="4"/><rect class="cls-11" x="125.57" y="-0.74" width="1" height="1"/><rect class="cls-1" x="123.57" y="1.26" width="4" height="4"/><rect class="cls-11" x="123.57" y="1.26" width="1" height="1"/><rect class="cls-11" x="125.57" y="3.26" width="1" height="1"/><rect class="cls-1" x="123.57" y="5.26" width="4" height="4"/><rect class="cls-11" x="123.57" y="5.26" width="1" height="1"/><rect class="cls-11" x="125.57" y="7.26" width="1" height="1"/><rect class="cls-1" x="123.57" y="9.26" width="4" height="4"/><rect class="cls-11" x="123.57" y="9.26" width="1" height="1"/><rect class="cls-11" x="125.57" y="11.26" width="1" height="1"/><rect class="cls-1" x="123.57" y="13.26" width="4" height="4"/><rect class="cls-11" x="123.57" y="13.26" width="1" height="1"/><rect class="cls-11" x="125.57" y="15.26" width="1" height="1"/><rect class="cls-1" x="123.57" y="17.26" width="4" height="4"/><rect class="cls-11" x="123.57" y="17.26" width="1" height="1"/><rect class="cls-11" x="125.57" y="19.26" width="1" height="1"/><rect class="cls-1" x="123.57" y="21.26" width="4" height="4"/><rect class="cls-11" x="123.57" y="21.26" width="1" height="1"/><rect class="cls-11" x="125.57" y="23.26" width="1" height="1"/><rect class="cls-1" x="123.57" y="25.26" width="4" height="4"/><rect class="cls-11" x="123.57" y="25.26" width="1" height="1"/><rect class="cls-11" x="125.57" y="27.26" width="1" height="1"/><rect class="cls-1" x="119.57" y="-2.74" width="4" height="4"/><rect class="cls-11" x="121.57" y="-0.74" width="1" height="1"/><rect class="cls-1" x="119.57" y="1.26" width="4" height="4"/><rect class="cls-11" x="119.57" y="1.26" width="1" height="1"/><rect class="cls-11" x="121.57" y="3.26" width="1" height="1"/><rect class="cls-1" x="119.57" y="5.26" width="4" height="4"/><rect class="cls-11" x="119.57" y="5.26" width="1" height="1"/><rect class="cls-11" x="121.57" y="7.26" width="1" height="1"/><rect class="cls-1" x="119.57" y="9.26" width="4" height="4"/><rect class="cls-11" x="119.57" y="9.26" width="1" height="1"/><rect class="cls-11" x="121.57" y="11.26" width="1" height="1"/><rect class="cls-1" x="119.57" y="13.26" width="4" height="4"/><rect class="cls-11" x="119.57" y="13.26" width="1" height="1"/><rect class="cls-11" x="121.57" y="15.26" width="1" height="1"/><rect class="cls-1" x="119.57" y="17.26" width="4" height="4"/><rect class="cls-11" x="119.57" y="17.26" width="1" height="1"/><rect class="cls-11" x="121.57" y="19.26" width="1" height="1"/><rect class="cls-1" x="119.57" y="21.26" width="4" height="4"/><rect class="cls-11" x="119.57" y="21.26" width="1" height="1"/><rect class="cls-11" x="121.57" y="23.26" width="1" height="1"/><rect class="cls-1" x="119.57" y="25.26" width="4" height="4"/><rect class="cls-11" x="119.57" y="25.26" width="1" height="1"/><rect class="cls-11" x="121.57" y="27.26" width="1" height="1"/><rect class="cls-1" x="115.57" y="-2.74" width="4" height="4"/><rect class="cls-11" x="117.57" y="-0.74" width="1" height="1"/><rect class="cls-1" x="115.57" y="1.26" width="4" height="4"/><rect class="cls-11" x="115.57" y="1.26" width="1" height="1"/><rect class="cls-11" x="117.57" y="3.26" width="1" height="1"/><rect class="cls-1" x="115.57" y="5.26" width="4" height="4"/><rect class="cls-11" x="115.57" y="5.26" width="1" height="1"/><rect class="cls-11" x="117.57" y="7.26" width="1" height="1"/><rect class="cls-1" x="115.57" y="9.26" width="4" height="4"/><rect class="cls-11" x="115.57" y="9.26" width="1" height="1"/><rect class="cls-11" x="117.57" y="11.26" width="1" height="1"/><rect class="cls-1" x="115.57" y="13.26" width="4" height="4"/><rect class="cls-11" x="115.57" y="13.26" width="1" height="1"/><rect class="cls-11" x="117.57" y="15.26" width="1" height="1"/><rect class="cls-1" x="115.57" y="17.26" width="4" height="4"/><rect class="cls-11" x="115.57" y="17.26" width="1" height="1"/><rect class="cls-11" x="117.57" y="19.26" width="1" height="1"/><rect class="cls-1" x="115.57" y="21.26" width="4" height="4"/><rect class="cls-11" x="115.57" y="21.26" width="1" height="1"/><rect class="cls-11" x="117.57" y="23.26" width="1" height="1"/><rect class="cls-1" x="115.57" y="25.26" width="4" height="4"/><rect class="cls-11" x="115.57" y="25.26" width="1" height="1"/><rect class="cls-11" x="117.57" y="27.26" width="1" height="1"/><rect class="cls-1" x="111.57" y="-2.74" width="4" height="4"/><rect class="cls-11" x="113.57" y="-0.74" width="1" height="1"/><rect class="cls-1" x="111.57" y="1.26" width="4" height="4"/><rect class="cls-11" x="111.57" y="1.26" width="1" height="1"/><rect class="cls-11" x="113.57" y="3.26" width="1" height="1"/><rect class="cls-1" x="111.57" y="5.26" width="4" height="4"/><rect class="cls-11" x="111.57" y="5.26" width="1" height="1"/><rect class="cls-11" x="113.57" y="7.26" width="1" height="1"/><rect class="cls-1" x="111.57" y="9.26" width="4" height="4"/><rect class="cls-11" x="111.57" y="9.26" width="1" height="1"/><rect class="cls-11" x="113.57" y="11.26" width="1" height="1"/><rect class="cls-1" x="111.57" y="13.26" width="4" height="4"/><rect class="cls-11" x="111.57" y="13.26" width="1" height="1"/><rect class="cls-11" x="113.57" y="15.26" width="1" height="1"/><rect class="cls-1" x="111.57" y="17.26" width="4" height="4"/><rect class="cls-11" x="111.57" y="17.26" width="1" height="1"/><rect class="cls-11" x="113.57" y="19.26" width="1" height="1"/><rect class="cls-1" x="111.57" y="21.26" width="4" height="4"/><rect class="cls-11" x="111.57" y="21.26" width="1" height="1"/><rect class="cls-11" x="113.57" y="23.26" width="1" height="1"/><rect class="cls-1" x="111.57" y="25.26" width="4" height="4"/><rect class="cls-11" x="111.57" y="25.26" width="1" height="1"/><rect class="cls-11" x="113.57" y="27.26" width="1" height="1"/><rect class="cls-1" x="107.57" y="-2.74" width="4" height="4"/><rect class="cls-11" x="109.57" y="-0.74" width="1" height="1"/><rect class="cls-1" x="107.57" y="1.26" width="4" height="4"/><rect class="cls-11" x="107.57" y="1.26" width="1" height="1"/><rect class="cls-11" x="109.57" y="3.26" width="1" height="1"/><rect class="cls-1" x="107.57" y="5.26" width="4" height="4"/><rect class="cls-11" x="107.57" y="5.26" width="1" height="1"/><rect class="cls-11" x="109.57" y="7.26" width="1" height="1"/><rect class="cls-1" x="107.57" y="9.26" width="4" height="4"/><rect class="cls-11" x="107.57" y="9.26" width="1" height="1"/><rect class="cls-11" x="109.57" y="11.26" width="1" height="1"/><rect class="cls-1" x="107.57" y="13.26" width="4" height="4"/><rect class="cls-11" x="107.57" y="13.26" width="1" height="1"/><rect class="cls-11" x="109.57" y="15.26" width="1" height="1"/><rect class="cls-1" x="107.57" y="17.26" width="4" height="4"/><rect class="cls-11" x="107.57" y="17.26" width="1" height="1"/><rect class="cls-11" x="109.57" y="19.26" width="1" height="1"/><rect class="cls-1" x="107.57" y="21.26" width="4" height="4"/><rect class="cls-11" x="107.57" y="21.26" width="1" height="1"/><rect class="cls-11" x="109.57" y="23.26" width="1" height="1"/><rect class="cls-1" x="107.57" y="25.26" width="4" height="4"/><rect class="cls-11" x="107.57" y="25.26" width="1" height="1"/><rect class="cls-11" x="109.57" y="27.26" width="1" height="1"/><rect class="cls-1" x="103.57" y="-2.74" width="4" height="4"/><rect class="cls-11" x="105.57" y="-0.74" width="1" height="1"/><rect class="cls-1" x="103.57" y="1.26" width="4" height="4"/><rect class="cls-11" x="103.57" y="1.26" width="1" height="1"/><rect class="cls-11" x="105.57" y="3.26" width="1" height="1"/><rect class="cls-1" x="103.57" y="5.26" width="4" height="4"/><rect class="cls-11" x="103.57" y="5.26" width="1" height="1"/><rect class="cls-11" x="105.57" y="7.26" width="1" height="1"/><rect class="cls-1" x="103.57" y="9.26" width="4" height="4"/><rect class="cls-11" x="103.57" y="9.26" width="1" height="1"/><rect class="cls-11" x="105.57" y="11.26" width="1" height="1"/><rect class="cls-1" x="103.57" y="13.26" width="4" height="4"/><rect class="cls-11" x="103.57" y="13.26" width="1" height="1"/><rect class="cls-11" x="105.57" y="15.26" width="1" height="1"/><rect class="cls-1" x="103.57" y="17.26" width="4" height="4"/><rect class="cls-11" x="103.57" y="17.26" width="1" height="1"/><rect class="cls-11" x="105.57" y="19.26" width="1" height="1"/><rect class="cls-1" x="103.57" y="21.26" width="4" height="4"/><rect class="cls-11" x="103.57" y="21.26" width="1" height="1"/><rect class="cls-11" x="105.57" y="23.26" width="1" height="1"/><rect class="cls-1" x="103.57" y="25.26" width="4" height="4"/><rect class="cls-11" x="103.57" y="25.26" width="1" height="1"/><rect class="cls-11" x="105.57" y="27.26" width="1" height="1"/><rect class="cls-1" x="99.57" y="-2.74" width="4" height="4"/><rect class="cls-11" x="101.57" y="-0.74" width="1" height="1"/><rect class="cls-1" x="99.57" y="1.26" width="4" height="4"/><rect class="cls-11" x="99.57" y="1.26" width="1" height="1"/><rect class="cls-11" x="101.57" y="3.26" width="1" height="1"/><rect class="cls-1" x="99.57" y="5.26" width="4" height="4"/><rect class="cls-11" x="99.57" y="5.26" width="1" height="1"/><rect class="cls-11" x="101.57" y="7.26" width="1" height="1"/><rect class="cls-1" x="99.57" y="9.26" width="4" height="4"/><rect class="cls-11" x="99.57" y="9.26" width="1" height="1"/><rect class="cls-11" x="101.57" y="11.26" width="1" height="1"/><rect class="cls-1" x="99.57" y="13.26" width="4" height="4"/><rect class="cls-11" x="99.57" y="13.26" width="1" height="1"/><rect class="cls-11" x="101.57" y="15.26" width="1" height="1"/><rect class="cls-1" x="99.57" y="17.26" width="4" height="4"/><rect class="cls-11" x="99.57" y="17.26" width="1" height="1"/><rect class="cls-11" x="101.57" y="19.26" width="1" height="1"/><rect class="cls-1" x="99.57" y="21.26" width="4" height="4"/><rect class="cls-11" x="99.57" y="21.26" width="1" height="1"/><rect class="cls-11" x="101.57" y="23.26" width="1" height="1"/><rect class="cls-1" x="99.57" y="25.26" width="4" height="4"/><rect class="cls-11" x="99.57" y="25.26" width="1" height="1"/><rect class="cls-11" x="101.57" y="27.26" width="1" height="1"/><rect class="cls-1" x="95.57" y="-2.74" width="4" height="4"/><rect class="cls-11" x="97.57" y="-0.74" width="1" height="1"/><rect class="cls-1" x="95.57" y="1.26" width="4" height="4"/><rect class="cls-11" x="95.57" y="1.26" width="1" height="1"/><rect class="cls-11" x="97.57" y="3.26" width="1" height="1"/><rect class="cls-1" x="95.57" y="5.26" width="4" height="4"/><rect class="cls-11" x="95.57" y="5.26" width="1" height="1"/><rect class="cls-11" x="97.57" y="7.26" width="1" height="1"/><rect class="cls-1" x="95.57" y="9.26" width="4" height="4"/><rect class="cls-11" x="95.57" y="9.26" width="1" height="1"/><rect class="cls-11" x="97.57" y="11.26" width="1" height="1"/><rect class="cls-1" x="95.57" y="13.26" width="4" height="4"/><rect class="cls-11" x="95.57" y="13.26" width="1" height="1"/><rect class="cls-11" x="97.57" y="15.26" width="1" height="1"/><rect class="cls-1" x="95.57" y="17.26" width="4" height="4"/><rect class="cls-11" x="95.57" y="17.26" width="1" height="1"/><rect class="cls-11" x="97.57" y="19.26" width="1" height="1"/><rect class="cls-1" x="95.57" y="21.26" width="4" height="4"/><rect class="cls-11" x="95.57" y="21.26" width="1" height="1"/><rect class="cls-11" x="97.57" y="23.26" width="1" height="1"/><rect class="cls-1" x="95.57" y="25.26" width="4" height="4"/><rect class="cls-11" x="95.57" y="25.26" width="1" height="1"/><rect class="cls-11" x="97.57" y="27.26" width="1" height="1"/><rect class="cls-1" x="91.57" y="-2.74" width="4" height="4"/><rect class="cls-11" x="93.57" y="-0.74" width="1" height="1"/><rect class="cls-1" x="91.57" y="1.26" width="4" height="4"/><rect class="cls-11" x="91.57" y="1.26" width="1" height="1"/><rect class="cls-11" x="93.57" y="3.26" width="1" height="1"/><rect class="cls-1" x="91.57" y="5.26" width="4" height="4"/><rect class="cls-11" x="91.57" y="5.26" width="1" height="1"/><rect class="cls-11" x="93.57" y="7.26" width="1" height="1"/><rect class="cls-1" x="91.57" y="9.26" width="4" height="4"/><rect class="cls-11" x="91.57" y="9.26" width="1" height="1"/><rect class="cls-11" x="93.57" y="11.26" width="1" height="1"/><rect class="cls-1" x="91.57" y="13.26" width="4" height="4"/><rect class="cls-11" x="91.57" y="13.26" width="1" height="1"/><rect class="cls-11" x="93.57" y="15.26" width="1" height="1"/><rect class="cls-1" x="91.57" y="17.26" width="4" height="4"/><rect class="cls-11" x="91.57" y="17.26" width="1" height="1"/><rect class="cls-11" x="93.57" y="19.26" width="1" height="1"/><rect class="cls-1" x="91.57" y="21.26" width="4" height="4"/><rect class="cls-11" x="91.57" y="21.26" width="1" height="1"/><rect class="cls-11" x="93.57" y="23.26" width="1" height="1"/><rect class="cls-1" x="91.57" y="25.26" width="4" height="4"/><rect class="cls-11" x="91.57" y="25.26" width="1" height="1"/><rect class="cls-11" x="93.57" y="27.26" width="1" height="1"/><rect class="cls-1" x="87.57" y="-2.74" width="4" height="4"/><rect class="cls-11" x="89.57" y="-0.74" width="1" height="1"/><rect class="cls-1" x="87.57" y="1.26" width="4" height="4"/><rect class="cls-11" x="87.57" y="1.26" width="1" height="1"/><rect class="cls-11" x="89.57" y="3.26" width="1" height="1"/><rect class="cls-1" x="87.57" y="5.26" width="4" height="4"/><rect class="cls-11" x="87.57" y="5.26" width="1" height="1"/><rect class="cls-11" x="89.57" y="7.26" width="1" height="1"/><rect class="cls-1" x="87.57" y="9.26" width="4" height="4"/><rect class="cls-11" x="87.57" y="9.26" width="1" height="1"/><rect class="cls-11" x="89.57" y="11.26" width="1" height="1"/><rect class="cls-1" x="87.57" y="13.26" width="4" height="4"/><rect class="cls-11" x="87.57" y="13.26" width="1" height="1"/><rect class="cls-11" x="89.57" y="15.26" width="1" height="1"/><rect class="cls-1" x="87.57" y="17.26" width="4" height="4"/><rect class="cls-11" x="87.57" y="17.26" width="1" height="1"/><rect class="cls-11" x="89.57" y="19.26" width="1" height="1"/><rect class="cls-1" x="87.57" y="21.26" width="4" height="4"/><rect class="cls-11" x="87.57" y="21.26" width="1" height="1"/><rect class="cls-11" x="89.57" y="23.26" width="1" height="1"/><rect class="cls-1" x="87.57" y="25.26" width="4" height="4"/><rect class="cls-11" x="87.57" y="25.26" width="1" height="1"/><rect class="cls-11" x="89.57" y="27.26" width="1" height="1"/><rect class="cls-1" x="83.57" y="-2.74" width="4" height="4"/><rect class="cls-11" x="85.57" y="-0.74" width="1" height="1"/><rect class="cls-1" x="83.57" y="1.26" width="4" height="4"/><rect class="cls-11" x="83.57" y="1.26" width="1" height="1"/><rect class="cls-11" x="85.57" y="3.26" width="1" height="1"/><rect class="cls-1" x="83.57" y="5.26" width="4" height="4"/><rect class="cls-11" x="83.57" y="5.26" width="1" height="1"/><rect class="cls-11" x="85.57" y="7.26" width="1" height="1"/><rect class="cls-1" x="83.57" y="9.26" width="4" height="4"/><rect class="cls-11" x="83.57" y="9.26" width="1" height="1"/><rect class="cls-11" x="85.57" y="11.26" width="1" height="1"/><rect class="cls-1" x="83.57" y="13.26" width="4" height="4"/><rect class="cls-11" x="83.57" y="13.26" width="1" height="1"/><rect class="cls-11" x="85.57" y="15.26" width="1" height="1"/><rect class="cls-1" x="83.57" y="17.26" width="4" height="4"/><rect class="cls-11" x="83.57" y="17.26" width="1" height="1"/><rect class="cls-11" x="85.57" y="19.26" width="1" height="1"/><rect class="cls-1" x="83.57" y="21.26" width="4" height="4"/><rect class="cls-11" x="83.57" y="21.26" width="1" height="1"/><rect class="cls-11" x="85.57" y="23.26" width="1" height="1"/><rect class="cls-1" x="83.57" y="25.26" width="4" height="4"/><rect class="cls-11" x="83.57" y="25.26" width="1" height="1"/><rect class="cls-11" x="85.57" y="27.26" width="1" height="1"/><rect class="cls-1" x="79.57" y="-2.74" width="4" height="4"/><rect class="cls-11" x="81.57" y="-0.74" width="1" height="1"/><rect class="cls-1" x="79.57" y="1.26" width="4" height="4"/><rect class="cls-11" x="79.57" y="1.26" width="1" height="1"/><rect class="cls-11" x="81.57" y="3.26" width="1" height="1"/><rect class="cls-1" x="79.57" y="5.26" width="4" height="4"/><rect class="cls-11" x="79.57" y="5.26" width="1" height="1"/><rect class="cls-11" x="81.57" y="7.26" width="1" height="1"/><rect class="cls-1" x="79.57" y="9.26" width="4" height="4"/><rect class="cls-11" x="79.57" y="9.26" width="1" height="1"/><rect class="cls-11" x="81.57" y="11.26" width="1" height="1"/><rect class="cls-1" x="79.57" y="13.26" width="4" height="4"/><rect class="cls-11" x="79.57" y="13.26" width="1" height="1"/><rect class="cls-11" x="81.57" y="15.26" width="1" height="1"/><rect class="cls-1" x="79.57" y="17.26" width="4" height="4"/><rect class="cls-11" x="79.57" y="17.26" width="1" height="1"/><rect class="cls-11" x="81.57" y="19.26" width="1" height="1"/><rect class="cls-1" x="79.57" y="21.26" width="4" height="4"/><rect class="cls-11" x="79.57" y="21.26" width="1" height="1"/><rect class="cls-11" x="81.57" y="23.26" width="1" height="1"/><rect class="cls-1" x="79.57" y="25.26" width="4" height="4"/><rect class="cls-11" x="79.57" y="25.26" width="1" height="1"/><rect class="cls-11" x="81.57" y="27.26" width="1" height="1"/><rect class="cls-1" x="75.57" y="-2.74" width="4" height="4"/><rect class="cls-11" x="77.57" y="-0.74" width="1" height="1"/><rect class="cls-1" x="75.57" y="1.26" width="4" height="4"/><rect class="cls-11" x="75.57" y="1.26" width="1" height="1"/><rect class="cls-11" x="77.57" y="3.26" width="1" height="1"/><rect class="cls-1" x="75.57" y="5.26" width="4" height="4"/><rect class="cls-11" x="75.57" y="5.26" width="1" height="1"/><rect class="cls-11" x="77.57" y="7.26" width="1" height="1"/><rect class="cls-1" x="75.57" y="9.26" width="4" height="4"/><rect class="cls-11" x="75.57" y="9.26" width="1" height="1"/><rect class="cls-11" x="77.57" y="11.26" width="1" height="1"/><rect class="cls-1" x="75.57" y="13.26" width="4" height="4"/><rect class="cls-11" x="75.57" y="13.26" width="1" height="1"/><rect class="cls-11" x="77.57" y="15.26" width="1" height="1"/><rect class="cls-1" x="75.57" y="17.26" width="4" height="4"/><rect class="cls-11" x="75.57" y="17.26" width="1" height="1"/><rect class="cls-11" x="77.57" y="19.26" width="1" height="1"/><rect class="cls-1" x="75.57" y="21.26" width="4" height="4"/><rect class="cls-11" x="75.57" y="21.26" width="1" height="1"/><rect class="cls-11" x="77.57" y="23.26" width="1" height="1"/><rect class="cls-1" x="75.57" y="25.26" width="4" height="4"/><rect class="cls-11" x="75.57" y="25.26" width="1" height="1"/><rect class="cls-11" x="77.57" y="27.26" width="1" height="1"/><rect class="cls-1" x="71.57" y="-2.74" width="4" height="4"/><rect class="cls-11" x="73.57" y="-0.74" width="1" height="1"/><rect class="cls-1" x="71.57" y="1.26" width="4" height="4"/><rect class="cls-11" x="71.57" y="1.26" width="1" height="1"/><rect class="cls-11" x="73.57" y="3.26" width="1" height="1"/><rect class="cls-1" x="71.57" y="5.26" width="4" height="4"/><rect class="cls-11" x="71.57" y="5.26" width="1" height="1"/><rect class="cls-11" x="73.57" y="7.26" width="1" height="1"/><rect class="cls-1" x="71.57" y="9.26" width="4" height="4"/><rect class="cls-11" x="71.57" y="9.26" width="1" height="1"/><rect class="cls-11" x="73.57" y="11.26" width="1" height="1"/><rect class="cls-1" x="71.57" y="13.26" width="4" height="4"/><rect class="cls-11" x="71.57" y="13.26" width="1" height="1"/><rect class="cls-11" x="73.57" y="15.26" width="1" height="1"/><rect class="cls-1" x="71.57" y="17.26" width="4" height="4"/><rect class="cls-11" x="71.57" y="17.26" width="1" height="1"/><rect class="cls-11" x="73.57" y="19.26" width="1" height="1"/><rect class="cls-1" x="71.57" y="21.26" width="4" height="4"/><rect class="cls-11" x="71.57" y="21.26" width="1" height="1"/><rect class="cls-11" x="73.57" y="23.26" width="1" height="1"/><rect class="cls-1" x="71.57" y="25.26" width="4" height="4"/><rect class="cls-11" x="71.57" y="25.26" width="1" height="1"/><rect class="cls-11" x="73.57" y="27.26" width="1" height="1"/><rect class="cls-1" x="67.57" y="-2.74" width="4" height="4"/><rect class="cls-11" x="69.57" y="-0.74" width="1" height="1"/><rect class="cls-1" x="67.57" y="1.26" width="4" height="4"/><rect class="cls-11" x="67.57" y="1.26" width="1" height="1"/><rect class="cls-11" x="69.57" y="3.26" width="1" height="1"/><rect class="cls-1" x="67.57" y="5.26" width="4" height="4"/><rect class="cls-11" x="67.57" y="5.26" width="1" height="1"/><rect class="cls-11" x="69.57" y="7.26" width="1" height="1"/><rect class="cls-1" x="67.57" y="9.26" width="4" height="4"/><rect class="cls-11" x="67.57" y="9.26" width="1" height="1"/><rect class="cls-11" x="69.57" y="11.26" width="1" height="1"/><rect class="cls-1" x="67.57" y="13.26" width="4" height="4"/><rect class="cls-11" x="67.57" y="13.26" width="1" height="1"/><rect class="cls-11" x="69.57" y="15.26" width="1" height="1"/><rect class="cls-1" x="67.57" y="17.26" width="4" height="4"/><rect class="cls-11" x="67.57" y="17.26" width="1" height="1"/><rect class="cls-11" x="69.57" y="19.26" width="1" height="1"/><rect class="cls-1" x="67.57" y="21.26" width="4" height="4"/><rect class="cls-11" x="67.57" y="21.26" width="1" height="1"/><rect class="cls-11" x="69.57" y="23.26" width="1" height="1"/><rect class="cls-1" x="67.57" y="25.26" width="4" height="4"/><rect class="cls-11" x="67.57" y="25.26" width="1" height="1"/><rect class="cls-11" x="69.57" y="27.26" width="1" height="1"/><rect class="cls-1" x="63.57" y="-2.74" width="4" height="4"/><rect class="cls-11" x="65.57" y="-0.74" width="1" height="1"/><rect class="cls-1" x="63.57" y="1.26" width="4" height="4"/><rect class="cls-11" x="63.57" y="1.26" width="1" height="1"/><rect class="cls-11" x="65.57" y="3.26" width="1" height="1"/><rect class="cls-1" x="63.57" y="5.26" width="4" height="4"/><rect class="cls-11" x="63.57" y="5.26" width="1" height="1"/><rect class="cls-11" x="65.57" y="7.26" width="1" height="1"/><rect class="cls-1" x="63.57" y="9.26" width="4" height="4"/><rect class="cls-11" x="63.57" y="9.26" width="1" height="1"/><rect class="cls-11" x="65.57" y="11.26" width="1" height="1"/><rect class="cls-1" x="63.57" y="13.26" width="4" height="4"/><rect class="cls-11" x="63.57" y="13.26" width="1" height="1"/><rect class="cls-11" x="65.57" y="15.26" width="1" height="1"/><rect class="cls-1" x="63.57" y="17.26" width="4" height="4"/><rect class="cls-11" x="63.57" y="17.26" width="1" height="1"/><rect class="cls-11" x="65.57" y="19.26" width="1" height="1"/><rect class="cls-1" x="63.57" y="21.26" width="4" height="4"/><rect class="cls-11" x="63.57" y="21.26" width="1" height="1"/><rect class="cls-11" x="65.57" y="23.26" width="1" height="1"/><rect class="cls-1" x="63.57" y="25.26" width="4" height="4"/><rect class="cls-11" x="63.57" y="25.26" width="1" height="1"/><rect class="cls-11" x="65.57" y="27.26" width="1" height="1"/><rect class="cls-1" x="59.57" y="-2.74" width="4" height="4"/><rect class="cls-11" x="61.57" y="-0.74" width="1" height="1"/><rect class="cls-1" x="59.57" y="1.26" width="4" height="4"/><rect class="cls-11" x="59.57" y="1.26" width="1" height="1"/><rect class="cls-11" x="61.57" y="3.26" width="1" height="1"/><rect class="cls-1" x="59.57" y="5.26" width="4" height="4"/><rect class="cls-11" x="59.57" y="5.26" width="1" height="1"/><rect class="cls-11" x="61.57" y="7.26" width="1" height="1"/><rect class="cls-1" x="59.57" y="9.26" width="4" height="4"/><rect class="cls-11" x="59.57" y="9.26" width="1" height="1"/><rect class="cls-11" x="61.57" y="11.26" width="1" height="1"/><rect class="cls-1" x="59.57" y="13.26" width="4" height="4"/><rect class="cls-11" x="59.57" y="13.26" width="1" height="1"/><rect class="cls-11" x="61.57" y="15.26" width="1" height="1"/><rect class="cls-1" x="59.57" y="17.26" width="4" height="4"/><rect class="cls-11" x="59.57" y="17.26" width="1" height="1"/><rect class="cls-11" x="61.57" y="19.26" width="1" height="1"/><rect class="cls-1" x="59.57" y="21.26" width="4" height="4"/><rect class="cls-11" x="59.57" y="21.26" width="1" height="1"/><rect class="cls-11" x="61.57" y="23.26" width="1" height="1"/><rect class="cls-1" x="59.57" y="25.26" width="4" height="4"/><rect class="cls-11" x="59.57" y="25.26" width="1" height="1"/><rect class="cls-11" x="61.57" y="27.26" width="1" height="1"/><rect class="cls-1" x="55.57" y="-2.74" width="4" height="4"/><rect class="cls-11" x="57.57" y="-0.74" width="1" height="1"/><rect class="cls-1" x="55.57" y="1.26" width="4" height="4"/><rect class="cls-11" x="55.57" y="1.26" width="1" height="1"/><rect class="cls-11" x="57.57" y="3.26" width="1" height="1"/><rect class="cls-1" x="55.57" y="5.26" width="4" height="4"/><rect class="cls-11" x="55.57" y="5.26" width="1" height="1"/><rect class="cls-11" x="57.57" y="7.26" width="1" height="1"/><rect class="cls-1" x="55.57" y="9.26" width="4" height="4"/><rect class="cls-11" x="55.57" y="9.26" width="1" height="1"/><rect class="cls-11" x="57.57" y="11.26" width="1" height="1"/><rect class="cls-1" x="55.57" y="13.26" width="4" height="4"/><rect class="cls-11" x="55.57" y="13.26" width="1" height="1"/><rect class="cls-11" x="57.57" y="15.26" width="1" height="1"/><rect class="cls-1" x="55.57" y="17.26" width="4" height="4"/><rect class="cls-11" x="55.57" y="17.26" width="1" height="1"/><rect class="cls-11" x="57.57" y="19.26" width="1" height="1"/><rect class="cls-1" x="55.57" y="21.26" width="4" height="4"/><rect class="cls-11" x="55.57" y="21.26" width="1" height="1"/><rect class="cls-11" x="57.57" y="23.26" width="1" height="1"/><rect class="cls-1" x="55.57" y="25.26" width="4" height="4"/><rect class="cls-11" x="55.57" y="25.26" width="1" height="1"/><rect class="cls-11" x="57.57" y="27.26" width="1" height="1"/><rect class="cls-1" x="51.57" y="-2.74" width="4" height="4"/><rect class="cls-11" x="53.57" y="-0.74" width="1" height="1"/><rect class="cls-1" x="51.57" y="1.26" width="4" height="4"/><rect class="cls-11" x="51.57" y="1.26" width="1" height="1"/><rect class="cls-11" x="53.57" y="3.26" width="1" height="1"/><rect class="cls-1" x="51.57" y="5.26" width="4" height="4"/><rect class="cls-11" x="51.57" y="5.26" width="1" height="1"/><rect class="cls-11" x="53.57" y="7.26" width="1" height="1"/><rect class="cls-1" x="51.57" y="9.26" width="4" height="4"/><rect class="cls-11" x="51.57" y="9.26" width="1" height="1"/><rect class="cls-11" x="53.57" y="11.26" width="1" height="1"/><rect class="cls-1" x="51.57" y="13.26" width="4" height="4"/><rect class="cls-11" x="51.57" y="13.26" width="1" height="1"/><rect class="cls-11" x="53.57" y="15.26" width="1" height="1"/><rect class="cls-1" x="51.57" y="17.26" width="4" height="4"/><rect class="cls-11" x="51.57" y="17.26" width="1" height="1"/><rect class="cls-11" x="53.57" y="19.26" width="1" height="1"/><rect class="cls-1" x="51.57" y="21.26" width="4" height="4"/><rect class="cls-11" x="51.57" y="21.26" width="1" height="1"/><rect class="cls-11" x="53.57" y="23.26" width="1" height="1"/><rect class="cls-1" x="51.57" y="25.26" width="4" height="4"/><rect class="cls-11" x="51.57" y="25.26" width="1" height="1"/><rect class="cls-11" x="53.57" y="27.26" width="1" height="1"/><rect class="cls-1" x="95.57" y="5.26" width="4" height="4"/><rect class="cls-11" x="95.57" y="5.26" width="1" height="1"/><rect class="cls-11" x="97.57" y="7.26" width="1" height="1"/><rect class="cls-1" x="95.57" y="9.26" width="4" height="4"/><rect class="cls-11" x="95.57" y="9.26" width="1" height="1"/><rect class="cls-11" x="97.57" y="11.26" width="1" height="1"/><rect class="cls-1" x="95.57" y="13.26" width="4" height="4"/><rect class="cls-11" x="95.57" y="13.26" width="1" height="1"/><rect class="cls-11" x="97.57" y="15.26" width="1" height="1"/><rect class="cls-1" x="91.57" y="5.26" width="4" height="4"/><rect class="cls-11" x="91.57" y="5.26" width="1" height="1"/><rect class="cls-11" x="93.57" y="7.26" width="1" height="1"/><rect class="cls-1" x="91.57" y="9.26" width="4" height="4"/><rect class="cls-11" x="91.57" y="9.26" width="1" height="1"/><rect class="cls-11" x="93.57" y="11.26" width="1" height="1"/><rect class="cls-1" x="91.57" y="13.26" width="4" height="4"/><rect class="cls-11" x="91.57" y="13.26" width="1" height="1"/><rect class="cls-11" x="93.57" y="15.26" width="1" height="1"/><rect class="cls-1" x="87.57" y="5.26" width="4" height="4"/><rect class="cls-11" x="87.57" y="5.26" width="1" height="1"/><rect class="cls-11" x="89.57" y="7.26" width="1" height="1"/><rect class="cls-1" x="87.57" y="9.26" width="4" height="4"/><rect class="cls-11" x="87.57" y="9.26" width="1" height="1"/><rect class="cls-11" x="89.57" y="11.26" width="1" height="1"/><rect class="cls-1" x="87.57" y="13.26" width="4" height="4"/><rect class="cls-11" x="87.57" y="13.26" width="1" height="1"/><rect class="cls-11" x="89.57" y="15.26" width="1" height="1"/><rect class="cls-1" x="83.57" y="5.26" width="4" height="4"/><rect class="cls-11" x="83.57" y="5.26" width="1" height="1"/><rect class="cls-11" x="85.57" y="7.26" width="1" height="1"/><rect class="cls-1" x="83.57" y="9.26" width="4" height="4"/><rect class="cls-11" x="83.57" y="9.26" width="1" height="1"/><rect class="cls-11" x="85.57" y="11.26" width="1" height="1"/><rect class="cls-1" x="83.57" y="13.26" width="4" height="4"/><rect class="cls-11" x="83.57" y="13.26" width="1" height="1"/><rect class="cls-11" x="85.57" y="15.26" width="1" height="1"/></g><path class="cls-2" d="M128.65,29.71H53.58V15.83a4.91,4.91,0,0,1,4.9-4.9H79.63a11.49,11.49,0,0,1,23,0h21.16a4.91,4.91,0,0,1,4.9,4.9Zm-74.07-1h73.07V15.83a3.91,3.91,0,0,0-3.9-3.9H101.61v-.49a10.5,10.5,0,0,0-21,0v.49H58.48a3.91,3.91,0,0,0-3.9,3.9ZM91.11,17.27a5.76,5.76,0,1,1,5.76-5.76A5.77,5.77,0,0,1,91.11,17.27Zm0-10.52a4.76,4.76,0,1,0,4.76,4.76A4.76,4.76,0,0,0,91.11,6.75Z"/><rect class="cls-7" x="124.89" y="149.56" width="50" height="50" rx="2"/><path class="cls-5" d="M172.89,200.06h-46a2.5,2.5,0,0,1-2.5-2.5v-46a2.5,2.5,0,0,1,2.5-2.5h46a2.5,2.5,0,0,1,2.5,2.5v46A2.5,2.5,0,0,1,172.89,200.06Zm-46-50a1.5,1.5,0,0,0-1.5,1.5v46a1.5,1.5,0,0,0,1.5,1.5h46a1.51,1.51,0,0,0,1.5-1.5v-46a1.5,1.5,0,0,0-1.5-1.5Z"/><circle class="cls-2" cx="136.14" cy="160.7" r="4.05"/><rect class="cls-2" x="144.86" y="159.76" width="21.62" height="1"/><circle class="cls-2" cx="162.42" cy="174.47" r="4.05"/><rect class="cls-2" x="132.08" y="173.53" width="21.62" height="1"/><circle class="cls-2" cx="136.14" cy="188.24" r="4.05"/><rect class="cls-2" x="144.86" y="187.3" width="21.62" height="1"/></svg>