<svg id="Layer_1" data-name="Layer 1" xmlns="http://www.w3.org/2000/svg" xmlns:xlink="http://www.w3.org/1999/xlink" viewBox="0 0 200 200"><defs><style>.cls-1{fill:none;}.cls-2{fill:#fff9e6;}.cls-3{fill:#111730;}.cls-4{clip-path:url(#clip-path);}.cls-5{fill:#10172f;}.cls-6{fill:#ffd300;}.cls-7{fill:#0f172f;}.cls-8{fill:#10182f;}</style><clipPath id="clip-path"><path class="cls-1" d="M143.85,116.06"/></clipPath></defs><rect class="cls-2" x="0.53" y="28.39" width="186" height="128.88"/><path class="cls-3" d="M187,157.77H0V27.89H187Zm-186-1H186V28.89H1Z"/><g class="cls-4"><rect class="cls-1" x="143.2" y="115.38" width="4" height="4"/><rect class="cls-5" x="143.2" y="115.38" width="1" height="1"/><rect class="cls-5" x="145.2" y="117.38" width="1" height="1"/></g><rect class="cls-6" x="149.49" y="121.61" width="50" height="50" rx="2"/><path class="cls-3" d="M197.49,172.11h-46a2.5,2.5,0,0,1-2.5-2.5v-46a2.5,2.5,0,0,1,2.5-2.5h46a2.5,2.5,0,0,1,2.5,2.5v46A2.5,2.5,0,0,1,197.49,172.11Zm-46-50a1.5,1.5,0,0,0-1.5,1.5v46a1.5,1.5,0,0,0,1.5,1.5h46a1.5,1.5,0,0,0,1.5-1.5v-46a1.5,1.5,0,0,0-1.5-1.5Z"/><circle class="cls-7" cx="160.74" cy="132.75" r="4.05"/><rect class="cls-7" x="169.46" y="131.81" width="21.62" height="1"/><circle class="cls-7" cx="187.02" cy="146.53" r="4.05"/><rect class="cls-7" x="156.69" y="145.58" width="21.62" height="1"/><circle class="cls-7" cx="160.74" cy="160.3" r="4.05"/><rect class="cls-7" x="169.46" y="159.36" width="21.62" height="1"/><rect class="cls-6" x="0.51" y="28.4" width="185.94" height="32.47"/><path class="cls-3" d="M187,61.37H0V27.9H187ZM1,60.37H186V28.9H1Z"/><polygon class="cls-7" points="62.72 148.8 35.7 120.45 28.92 126.87 0.6 97.48 1.32 96.79 28.95 125.46 35.74 119.04 62.71 147.34 103.01 104.5 112.17 114.44 111.43 115.11 103 105.97 62.72 148.8"/><polygon class="cls-8" points="156.44 71.95 158.13 65.65 151.83 67.33 156.44 71.95"/><path class="cls-7" d="M111.53,115.12l-.73-.69,2.76-2.89.73.69Zm5.52-5.79-.73-.69,2.76-2.89.73.69Zm5.52-5.79-.73-.69L124.6,100l.73.69Zm5.52-5.79-.73-.69,2.76-2.89.73.69ZM133.61,92l-.73-.69,2.76-2.89.73.68Zm5.52-5.79-.73-.69,2.76-2.89.73.68Zm5.52-5.79-.73-.69,2.76-2.9.73.69Zm5.52-5.79-.73-.69L152.2,71l.73.69Z"/><polygon class="cls-7" points="62.72 129.17 35.7 100.82 28.92 107.24 0.6 77.86 1.32 77.16 28.95 105.84 35.74 99.41 62.71 127.72 103.01 84.87 112.17 94.81 111.43 95.49 103 86.34 62.72 129.17"/><polygon class="cls-8" points="156.44 52.32 158.13 46.02 151.83 47.7 156.44 52.32"/><path class="cls-7" d="M111.53,95.49l-.73-.69,2.76-2.89.73.69Zm5.52-5.79-.73-.69,2.76-2.89.73.69Zm5.52-5.79-.73-.69,2.76-2.89.73.69Zm5.52-5.79-.73-.69,2.76-2.89.73.69Zm5.52-5.79-.73-.69,2.76-2.89.73.69Zm5.52-5.79-.73-.69L141.16,63l.73.69Zm5.52-5.79-.73-.69,2.76-2.89.73.69ZM150.17,55l-.73-.69,2.76-2.89.73.69Z"/></svg>