<svg id="Layer_1" data-name="Layer 1" xmlns="http://www.w3.org/2000/svg" xmlns:xlink="http://www.w3.org/1999/xlink" viewBox="0 0 200 200"><defs><style>.cls-1{fill:none;}.cls-2{fill:#231f20;}.cls-3{fill:#fff9e6;}.cls-4{fill:#111730;}.cls-5{fill:#ffd300;}.cls-6{fill:#0f172f;}.cls-7{fill:#66c4ff;}.cls-8{fill:#10182f;}.cls-9{fill:#aee938;}.cls-10{clip-path:url(#clip-path);}.cls-11{fill:#10172f;}</style><clipPath id="clip-path"><path class="cls-1" d="M59.41,93.05V111h0a17.89,17.89,0,0,1,17.91,17.89,17.66,17.66,0,0,1-2.39,8.93l15.26,9.39A35.8,35.8,0,0,0,59.41,93.05Z"/></clipPath></defs><rect class="cls-2" x="95.84" y="71.88" width="51.89" height="32.98"/><path class="cls-3" d="M182.2.55H5.18C2.45.55.24,3.18.24,6.42V181.58c0,3.24,2.21,5.87,4.94,5.87h178c2.19,0,4-2.1,4-4.7V6.42C187.15,3.18,184.93.55,182.2.55Z"/><path class="cls-4" d="M183.19,188H5.18c-3,0-5.44-2.86-5.44-6.37V6.42C-.26,2.91,2.18.05,5.18.05h177c3,0,5.45,2.86,5.45,6.37V182.75C187.65,185.62,185.65,188,183.19,188ZM5.18,1.05C2.73,1.05.74,3.46.74,6.42V181.58c0,3,2,5.37,4.44,5.37h178c1.91,0,3.46-1.88,3.46-4.2V6.42c0-3-2-5.37-4.45-5.37Z"/><rect class="cls-5" x="149.76" y="149.45" width="50" height="50" rx="2"/><path class="cls-4" d="M197.76,200h-46a2.5,2.5,0,0,1-2.5-2.5v-46a2.51,2.51,0,0,1,2.5-2.5h46a2.51,2.51,0,0,1,2.5,2.5v46A2.5,2.5,0,0,1,197.76,200Zm-46-50a1.5,1.5,0,0,0-1.5,1.5v46a1.5,1.5,0,0,0,1.5,1.5h46a1.5,1.5,0,0,0,1.5-1.5v-46a1.5,1.5,0,0,0-1.5-1.5Z"/><circle class="cls-6" cx="161.01" cy="160.6" r="4.05"/><rect class="cls-6" x="169.73" y="159.66" width="21.62" height="1"/><circle class="cls-6" cx="187.3" cy="174.37" r="4.05"/><rect class="cls-6" x="156.96" y="173.43" width="21.62" height="1"/><circle class="cls-6" cx="161.01" cy="188.14" r="4.05"/><rect class="cls-6" x="169.73" y="187.2" width="21.62" height="1"/><path class="cls-5" d="M74.94,137.78a17.9,17.9,0,0,1-31.24-.35l-16,8.08a35.81,35.81,0,0,0,62.48,1.66Z"/><path class="cls-4" d="M59.43,165.17a36.22,36.22,0,0,1-32.15-19.43l-.24-.45,16.87-8.53.23.43a17.41,17.41,0,0,0,15.29,9.08h0a17.46,17.46,0,0,0,15.07-8.74l.25-.45L90.89,147l-.26.42a36.48,36.48,0,0,1-31.18,17.74Zm-31-19.45a35.24,35.24,0,0,0,31,18.45h0a35.5,35.5,0,0,0,30.08-16.83l-14.41-8.87a18.46,18.46,0,0,1-15.67,8.8h0a18.42,18.42,0,0,1-15.93-9.18Z"/><path class="cls-7" d="M41.52,128.87A17.9,17.9,0,0,1,59.42,111V93.05h0a35.82,35.82,0,0,0-31.69,52.46l16-8.08A17.79,17.79,0,0,1,41.52,128.87Z"/><path class="cls-4" d="M27.51,146.17l-.23-.43A36.31,36.31,0,0,1,59.41,92.55h.5v18.91h-.5A17.43,17.43,0,0,0,42,128.87h0a17.47,17.47,0,0,0,2.12,8.32l.25.45Zm31.4-52.61a35.31,35.31,0,0,0-31,51.28L43,137.21a18.4,18.4,0,0,1-2-8.34h0a18.44,18.44,0,0,1,17.9-18.41Z"/><path class="cls-6" d="M163.78,109.87l-.07-37.48a9.17,9.17,0,0,0-9.18-9.17H92.24a9.18,9.18,0,0,0-9.19,9.19h0L83.11,110a9.19,9.19,0,0,0,9.2,9.19h0l35.48-.08,8.79,7.8v-7.82h18a9.18,9.18,0,0,0,9.2-9.18Zm-18.25-8.55H101.41V97.64h44.12Zm0-8.27H101.41V89.37h44.12Zm0-8.28H101.41V81.09h44.12Z"/><path class="cls-5" d="M80.47,80.15l-18.4,0L53.24,88V80.1H52.4A28.52,28.52,0,0,1,24,51.77h0A28.29,28.29,0,0,1,52.38,23.69H80.51A28.25,28.25,0,0,1,108.72,52h0A28.21,28.21,0,0,1,80.53,80.15Z"/><path class="cls-4" d="M52.74,89.1V80.6H52.4A29.12,29.12,0,0,1,23.45,51.77,28.78,28.78,0,0,1,52.38,23.19H80.51a28.73,28.73,0,0,1,0,57.46l-18.27,0Zm-.36-64.91A27.79,27.79,0,0,0,24.45,51.77a28.11,28.11,0,0,0,28,27.83h1.34v7.27l8.14-7.26,18.65,0a27.73,27.73,0,0,0,0-55.46Z"/><path class="cls-8" d="M52.89,88.77V80.45h-.51a28.56,28.56,0,1,1,0-57.12H80.54a28.58,28.58,0,0,1,0,57.15h-.07l-18.25,0Zm.7-9V87.2l8.35-7.45h.13l18.43,0h0a27.88,27.88,0,0,0,0-55.75H52.37a27.86,27.86,0,1,0,0,55.71h1.21Z"/><rect class="cls-8" x="64.19" y="40.19" width="3.68" height="24.82"/><rect class="cls-8" x="51.32" y="47.54" width="3.68" height="9.2"/><rect class="cls-8" x="83.49" y="43.86" width="3.68" height="16.54"/><rect class="cls-8" x="57.75" y="43.86" width="3.68" height="16.54"/><rect class="cls-8" x="70.62" y="43.86" width="3.68" height="16.54"/><rect class="cls-8" x="44.88" y="43.86" width="3.68" height="16.54"/><rect class="cls-8" x="77.06" y="47.54" width="3.68" height="9.2"/><rect class="cls-5" x="123.33" y="43.43" width="7.58" height="12.1"/><path class="cls-4" d="M131.41,56h-8.58V42.93h8.58Zm-7.58-1h6.58V43.93h-6.58Z"/><rect class="cls-9" x="134.41" y="26.77" width="7.58" height="28.75"/><path class="cls-4" d="M142.49,56h-8.58V26.27h8.58Zm-7.58-1h6.58V27.27h-6.58Z"/><rect class="cls-7" x="145.44" y="37.88" width="7.58" height="17.65"/><path class="cls-4" d="M153.52,56h-8.58V37.38h8.58Zm-7.58-1h6.58V38.38h-6.58Z"/><rect class="cls-4" x="116.91" y="55.03" width="41.94" height="1"/><g class="cls-10"><rect class="cls-1" x="91.95" y="91.53" width="4.67" height="4.67"/><rect class="cls-11" x="91.95" y="91.53" width="1.17" height="1.17"/><rect class="cls-11" x="94.28" y="93.87" width="1.17" height="1.17"/><rect class="cls-1" x="91.95" y="96.2" width="4.67" height="4.67"/><rect class="cls-11" x="91.95" y="96.2" width="1.17" height="1.17"/><rect class="cls-11" x="94.28" y="98.54" width="1.17" height="1.17"/><rect class="cls-1" x="91.95" y="100.87" width="4.67" height="4.67"/><rect class="cls-11" x="91.95" y="100.87" width="1.17" height="1.17"/><rect class="cls-11" x="94.28" y="103.21" width="1.17" height="1.17"/><rect class="cls-1" x="91.95" y="105.55" width="4.67" height="4.67"/><rect class="cls-11" x="91.95" y="105.55" width="1.17" height="1.17"/><rect class="cls-11" x="94.28" y="107.88" width="1.17" height="1.17"/><rect class="cls-1" x="91.95" y="110.22" width="4.67" height="4.67"/><rect class="cls-11" x="91.95" y="110.22" width="1.17" height="1.17"/><rect class="cls-11" x="94.28" y="112.56" width="1.17" height="1.17"/><rect class="cls-1" x="91.95" y="114.89" width="4.67" height="4.67"/><rect class="cls-11" x="91.95" y="114.89" width="1.17" height="1.17"/><rect class="cls-11" x="94.28" y="117.23" width="1.17" height="1.17"/><rect class="cls-1" x="91.95" y="119.57" width="4.67" height="4.67"/><rect class="cls-11" x="91.95" y="119.57" width="1.17" height="1.17"/><rect class="cls-11" x="94.28" y="121.9" width="1.17" height="1.17"/><rect class="cls-1" x="91.95" y="124.24" width="4.67" height="4.67"/><rect class="cls-11" x="91.95" y="124.24" width="1.17" height="1.17"/><rect class="cls-11" x="94.28" y="126.57" width="1.17" height="1.17"/><rect class="cls-1" x="91.95" y="128.91" width="4.67" height="4.67"/><rect class="cls-11" x="91.95" y="128.91" width="1.17" height="1.17"/><rect class="cls-11" x="94.28" y="131.25" width="1.17" height="1.17"/><rect class="cls-1" x="91.95" y="133.58" width="4.67" height="4.67"/><rect class="cls-11" x="91.95" y="133.58" width="1.17" height="1.17"/><rect class="cls-11" x="94.28" y="135.92" width="1.17" height="1.17"/><rect class="cls-1" x="91.95" y="138.26" width="4.67" height="4.67"/><rect class="cls-11" x="91.95" y="138.26" width="1.17" height="1.17"/><rect class="cls-11" x="94.28" y="140.59" width="1.17" height="1.17"/><rect class="cls-1" x="91.95" y="142.93" width="4.67" height="4.67"/><rect class="cls-11" x="91.95" y="142.93" width="1.17" height="1.17"/><rect class="cls-11" x="94.28" y="145.27" width="1.17" height="1.17"/><rect class="cls-1" x="87.28" y="91.53" width="4.67" height="4.67"/><rect class="cls-11" x="87.28" y="91.53" width="1.17" height="1.17"/><rect class="cls-11" x="89.61" y="93.87" width="1.17" height="1.17"/><rect class="cls-1" x="87.28" y="96.2" width="4.67" height="4.67"/><rect class="cls-11" x="87.28" y="96.2" width="1.17" height="1.17"/><rect class="cls-11" x="89.61" y="98.54" width="1.17" height="1.17"/><rect class="cls-1" x="87.28" y="100.87" width="4.67" height="4.67"/><rect class="cls-11" x="87.28" y="100.87" width="1.17" height="1.17"/><rect class="cls-11" x="89.61" y="103.21" width="1.17" height="1.17"/><rect class="cls-1" x="87.28" y="105.55" width="4.67" height="4.67"/><rect class="cls-11" x="87.28" y="105.55" width="1.17" height="1.17"/><rect class="cls-11" x="89.61" y="107.88" width="1.17" height="1.17"/><rect class="cls-1" x="87.28" y="110.22" width="4.67" height="4.67"/><rect class="cls-11" x="87.28" y="110.22" width="1.17" height="1.17"/><rect class="cls-11" x="89.61" y="112.56" width="1.17" height="1.17"/><rect class="cls-1" x="87.28" y="114.89" width="4.67" height="4.67"/><rect class="cls-11" x="87.28" y="114.89" width="1.17" height="1.17"/><rect class="cls-11" x="89.61" y="117.23" width="1.17" height="1.17"/><rect class="cls-1" x="87.28" y="119.57" width="4.67" height="4.67"/><rect class="cls-11" x="87.28" y="119.57" width="1.17" height="1.17"/><rect class="cls-11" x="89.61" y="121.9" width="1.17" height="1.17"/><rect class="cls-1" x="87.28" y="124.24" width="4.67" height="4.67"/><rect class="cls-11" x="87.28" y="124.24" width="1.17" height="1.17"/><rect class="cls-11" x="89.61" y="126.57" width="1.17" height="1.17"/><rect class="cls-1" x="87.28" y="128.91" width="4.67" height="4.67"/><rect class="cls-11" x="87.28" y="128.91" width="1.17" height="1.17"/><rect class="cls-11" x="89.61" y="131.25" width="1.17" height="1.17"/><rect class="cls-1" x="87.28" y="133.58" width="4.67" height="4.67"/><rect class="cls-11" x="87.28" y="133.58" width="1.17" height="1.17"/><rect class="cls-11" x="89.61" y="135.92" width="1.17" height="1.17"/><rect class="cls-1" x="87.28" y="138.26" width="4.67" height="4.67"/><rect class="cls-11" x="87.28" y="138.26" width="1.17" height="1.17"/><rect class="cls-11" x="89.61" y="140.59" width="1.17" height="1.17"/><rect class="cls-1" x="87.28" y="142.93" width="4.67" height="4.67"/><rect class="cls-11" x="87.28" y="142.93" width="1.17" height="1.17"/><rect class="cls-11" x="89.61" y="145.27" width="1.17" height="1.17"/><rect class="cls-1" x="82.6" y="91.53" width="4.67" height="4.67"/><rect class="cls-11" x="82.6" y="91.53" width="1.17" height="1.17"/><rect class="cls-11" x="84.94" y="93.87" width="1.17" height="1.17"/><rect class="cls-1" x="82.6" y="96.2" width="4.67" height="4.67"/><rect class="cls-11" x="82.6" y="96.2" width="1.17" height="1.17"/><rect class="cls-11" x="84.94" y="98.54" width="1.17" height="1.17"/><rect class="cls-1" x="82.6" y="100.87" width="4.67" height="4.67"/><rect class="cls-11" x="82.6" y="100.87" width="1.17" height="1.17"/><rect class="cls-11" x="84.94" y="103.21" width="1.17" height="1.17"/><rect class="cls-1" x="82.6" y="105.55" width="4.67" height="4.67"/><rect class="cls-11" x="82.6" y="105.55" width="1.17" height="1.17"/><rect class="cls-11" x="84.94" y="107.88" width="1.17" height="1.17"/><rect class="cls-1" x="82.6" y="110.22" width="4.67" height="4.67"/><rect class="cls-11" x="82.6" y="110.22" width="1.17" height="1.17"/><rect class="cls-11" x="84.94" y="112.56" width="1.17" height="1.17"/><rect class="cls-1" x="82.6" y="114.89" width="4.67" height="4.67"/><rect class="cls-11" x="82.6" y="114.89" width="1.17" height="1.17"/><rect class="cls-11" x="84.94" y="117.23" width="1.17" height="1.17"/><rect class="cls-1" x="82.6" y="119.57" width="4.67" height="4.67"/><rect class="cls-11" x="82.6" y="119.57" width="1.17" height="1.17"/><rect class="cls-11" x="84.94" y="121.9" width="1.17" height="1.17"/><rect class="cls-1" x="82.6" y="124.24" width="4.67" height="4.67"/><rect class="cls-11" x="82.6" y="124.24" width="1.17" height="1.17"/><rect class="cls-11" x="84.94" y="126.57" width="1.17" height="1.17"/><rect class="cls-1" x="82.6" y="128.91" width="4.67" height="4.67"/><rect class="cls-11" x="82.6" y="128.91" width="1.17" height="1.17"/><rect class="cls-11" x="84.94" y="131.25" width="1.17" height="1.17"/><rect class="cls-1" x="82.6" y="133.58" width="4.67" height="4.67"/><rect class="cls-11" x="82.6" y="133.58" width="1.17" height="1.17"/><rect class="cls-11" x="84.94" y="135.92" width="1.17" height="1.17"/><rect class="cls-1" x="82.6" y="138.26" width="4.67" height="4.67"/><rect class="cls-11" x="82.6" y="138.26" width="1.17" height="1.17"/><rect class="cls-11" x="84.94" y="140.59" width="1.17" height="1.17"/><rect class="cls-1" x="82.6" y="142.93" width="4.67" height="4.67"/><rect class="cls-11" x="82.6" y="142.93" width="1.17" height="1.17"/><rect class="cls-11" x="84.94" y="145.27" width="1.17" height="1.17"/><rect class="cls-1" x="77.93" y="91.53" width="4.67" height="4.67"/><rect class="cls-11" x="77.93" y="91.53" width="1.17" height="1.17"/><rect class="cls-11" x="80.27" y="93.87" width="1.17" height="1.17"/><rect class="cls-1" x="77.93" y="96.2" width="4.67" height="4.67"/><rect class="cls-11" x="77.93" y="96.2" width="1.17" height="1.17"/><rect class="cls-11" x="80.27" y="98.54" width="1.17" height="1.17"/><rect class="cls-1" x="77.93" y="100.87" width="4.67" height="4.67"/><rect class="cls-11" x="77.93" y="100.87" width="1.17" height="1.17"/><rect class="cls-11" x="80.27" y="103.21" width="1.17" height="1.17"/><rect class="cls-1" x="77.93" y="105.55" width="4.67" height="4.67"/><rect class="cls-11" x="77.93" y="105.55" width="1.17" height="1.17"/><rect class="cls-11" x="80.27" y="107.88" width="1.17" height="1.17"/><rect class="cls-1" x="77.93" y="110.22" width="4.67" height="4.67"/><rect class="cls-11" x="77.93" y="110.22" width="1.17" height="1.17"/><rect class="cls-11" x="80.27" y="112.56" width="1.17" height="1.17"/><rect class="cls-1" x="77.93" y="114.89" width="4.67" height="4.67"/><rect class="cls-11" x="77.93" y="114.89" width="1.17" height="1.17"/><rect class="cls-11" x="80.27" y="117.23" width="1.17" height="1.17"/><rect class="cls-1" x="77.93" y="119.57" width="4.67" height="4.67"/><rect class="cls-11" x="77.93" y="119.57" width="1.17" height="1.17"/><rect class="cls-11" x="80.27" y="121.9" width="1.17" height="1.17"/><rect class="cls-1" x="77.93" y="124.24" width="4.67" height="4.67"/><rect class="cls-11" x="77.93" y="124.24" width="1.17" height="1.17"/><rect class="cls-11" x="80.27" y="126.57" width="1.17" height="1.17"/><rect class="cls-1" x="77.93" y="128.91" width="4.67" height="4.67"/><rect class="cls-11" x="77.93" y="128.91" width="1.17" height="1.17"/><rect class="cls-11" x="80.27" y="131.25" width="1.17" height="1.17"/><rect class="cls-1" x="77.93" y="133.58" width="4.67" height="4.67"/><rect class="cls-11" x="77.93" y="133.58" width="1.17" height="1.17"/><rect class="cls-11" x="80.27" y="135.92" width="1.17" height="1.17"/><rect class="cls-1" x="77.93" y="138.26" width="4.67" height="4.67"/><rect class="cls-11" x="77.93" y="138.26" width="1.17" height="1.17"/><rect class="cls-11" x="80.27" y="140.59" width="1.17" height="1.17"/><rect class="cls-1" x="77.93" y="142.93" width="4.67" height="4.67"/><rect class="cls-11" x="77.93" y="142.93" width="1.17" height="1.17"/><rect class="cls-11" x="80.27" y="145.27" width="1.17" height="1.17"/><rect class="cls-1" x="73.26" y="91.53" width="4.67" height="4.67"/><rect class="cls-11" x="73.26" y="91.53" width="1.17" height="1.17"/><rect class="cls-11" x="75.59" y="93.87" width="1.17" height="1.17"/><rect class="cls-1" x="73.26" y="96.2" width="4.67" height="4.67"/><rect class="cls-11" x="73.26" y="96.2" width="1.17" height="1.17"/><rect class="cls-11" x="75.59" y="98.54" width="1.17" height="1.17"/><rect class="cls-1" x="73.26" y="100.87" width="4.67" height="4.67"/><rect class="cls-11" x="73.26" y="100.87" width="1.17" height="1.17"/><rect class="cls-11" x="75.59" y="103.21" width="1.17" height="1.17"/><rect class="cls-1" x="73.26" y="105.55" width="4.67" height="4.67"/><rect class="cls-11" x="73.26" y="105.55" width="1.17" height="1.17"/><rect class="cls-11" x="75.59" y="107.88" width="1.17" height="1.17"/><rect class="cls-1" x="73.26" y="110.22" width="4.67" height="4.67"/><rect class="cls-11" x="73.26" y="110.22" width="1.17" height="1.17"/><rect class="cls-11" x="75.59" y="112.56" width="1.17" height="1.17"/><rect class="cls-1" x="73.26" y="114.89" width="4.67" height="4.67"/><rect class="cls-11" x="73.26" y="114.89" width="1.17" height="1.17"/><rect class="cls-11" x="75.59" y="117.23" width="1.17" height="1.17"/><rect class="cls-1" x="73.26" y="119.57" width="4.67" height="4.67"/><rect class="cls-11" x="73.26" y="119.57" width="1.17" height="1.17"/><rect class="cls-11" x="75.59" y="121.9" width="1.17" height="1.17"/><rect class="cls-1" x="73.26" y="124.24" width="4.67" height="4.67"/><rect class="cls-11" x="73.26" y="124.24" width="1.17" height="1.17"/><rect class="cls-11" x="75.59" y="126.57" width="1.17" height="1.17"/><rect class="cls-1" x="73.26" y="128.91" width="4.67" height="4.67"/><rect class="cls-11" x="73.26" y="128.91" width="1.17" height="1.17"/><rect class="cls-11" x="75.59" y="131.25" width="1.17" height="1.17"/><rect class="cls-1" x="73.26" y="133.58" width="4.67" height="4.67"/><rect class="cls-11" x="73.26" y="133.58" width="1.17" height="1.17"/><rect class="cls-11" x="75.59" y="135.92" width="1.17" height="1.17"/><rect class="cls-1" x="73.26" y="138.26" width="4.67" height="4.67"/><rect class="cls-11" x="73.26" y="138.26" width="1.17" height="1.17"/><rect class="cls-11" x="75.59" y="140.59" width="1.17" height="1.17"/><rect class="cls-1" x="73.26" y="142.93" width="4.67" height="4.67"/><rect class="cls-11" x="73.26" y="142.93" width="1.17" height="1.17"/><rect class="cls-11" x="75.59" y="145.27" width="1.17" height="1.17"/><rect class="cls-1" x="68.58" y="91.53" width="4.67" height="4.67"/><rect class="cls-11" x="68.58" y="91.53" width="1.17" height="1.17"/><rect class="cls-11" x="70.92" y="93.87" width="1.17" height="1.17"/><rect class="cls-1" x="68.58" y="96.2" width="4.67" height="4.67"/><rect class="cls-11" x="68.58" y="96.2" width="1.17" height="1.17"/><rect class="cls-11" x="70.92" y="98.54" width="1.17" height="1.17"/><rect class="cls-1" x="68.58" y="100.87" width="4.67" height="4.67"/><rect class="cls-11" x="68.58" y="100.87" width="1.17" height="1.17"/><rect class="cls-11" x="70.92" y="103.21" width="1.17" height="1.17"/><rect class="cls-1" x="68.58" y="105.55" width="4.67" height="4.67"/><rect class="cls-11" x="68.58" y="105.55" width="1.17" height="1.17"/><rect class="cls-11" x="70.92" y="107.88" width="1.17" height="1.17"/><rect class="cls-1" x="68.58" y="110.22" width="4.67" height="4.67"/><rect class="cls-11" x="68.58" y="110.22" width="1.17" height="1.17"/><rect class="cls-11" x="70.92" y="112.56" width="1.17" height="1.17"/><rect class="cls-1" x="68.58" y="114.89" width="4.67" height="4.67"/><rect class="cls-11" x="68.58" y="114.89" width="1.17" height="1.17"/><rect class="cls-11" x="70.92" y="117.23" width="1.17" height="1.17"/><rect class="cls-1" x="68.58" y="119.57" width="4.67" height="4.67"/><rect class="cls-11" x="68.58" y="119.57" width="1.17" height="1.17"/><rect class="cls-11" x="70.92" y="121.9" width="1.17" height="1.17"/><rect class="cls-1" x="68.58" y="124.24" width="4.67" height="4.67"/><rect class="cls-11" x="68.58" y="124.24" width="1.17" height="1.17"/><rect class="cls-11" x="70.92" y="126.57" width="1.17" height="1.17"/><rect class="cls-1" x="68.58" y="128.91" width="4.67" height="4.67"/><rect class="cls-11" x="68.58" y="128.91" width="1.17" height="1.17"/><rect class="cls-11" x="70.92" y="131.25" width="1.17" height="1.17"/><rect class="cls-1" x="68.58" y="133.58" width="4.67" height="4.67"/><rect class="cls-11" x="68.58" y="133.58" width="1.17" height="1.17"/><rect class="cls-11" x="70.92" y="135.92" width="1.17" height="1.17"/><rect class="cls-1" x="68.58" y="138.26" width="4.67" height="4.67"/><rect class="cls-11" x="68.58" y="138.26" width="1.17" height="1.17"/><rect class="cls-11" x="70.92" y="140.59" width="1.17" height="1.17"/><rect class="cls-1" x="68.58" y="142.93" width="4.67" height="4.67"/><rect class="cls-11" x="68.58" y="142.93" width="1.17" height="1.17"/><rect class="cls-11" x="70.92" y="145.27" width="1.17" height="1.17"/><rect class="cls-1" x="63.91" y="91.53" width="4.67" height="4.67"/><rect class="cls-11" x="63.91" y="91.53" width="1.17" height="1.17"/><rect class="cls-11" x="66.25" y="93.87" width="1.17" height="1.17"/><rect class="cls-1" x="63.91" y="96.2" width="4.67" height="4.67"/><rect class="cls-11" x="63.91" y="96.2" width="1.17" height="1.17"/><rect class="cls-11" x="66.25" y="98.54" width="1.17" height="1.17"/><rect class="cls-1" x="63.91" y="100.87" width="4.67" height="4.67"/><rect class="cls-11" x="63.91" y="100.87" width="1.17" height="1.17"/><rect class="cls-11" x="66.25" y="103.21" width="1.17" height="1.17"/><rect class="cls-1" x="63.91" y="105.55" width="4.67" height="4.67"/><rect class="cls-11" x="63.91" y="105.55" width="1.17" height="1.17"/><rect class="cls-11" x="66.25" y="107.88" width="1.17" height="1.17"/><rect class="cls-1" x="63.91" y="110.22" width="4.67" height="4.67"/><rect class="cls-11" x="63.91" y="110.22" width="1.17" height="1.17"/><rect class="cls-11" x="66.25" y="112.56" width="1.17" height="1.17"/><rect class="cls-1" x="63.91" y="114.89" width="4.67" height="4.67"/><rect class="cls-11" x="63.91" y="114.89" width="1.17" height="1.17"/><rect class="cls-11" x="66.25" y="117.23" width="1.17" height="1.17"/><rect class="cls-1" x="63.91" y="119.57" width="4.67" height="4.67"/><rect class="cls-11" x="63.91" y="119.57" width="1.17" height="1.17"/><rect class="cls-11" x="66.25" y="121.9" width="1.17" height="1.17"/><rect class="cls-1" x="63.91" y="124.24" width="4.67" height="4.67"/><rect class="cls-11" x="63.91" y="124.24" width="1.17" height="1.17"/><rect class="cls-11" x="66.25" y="126.57" width="1.17" height="1.17"/><rect class="cls-1" x="63.91" y="128.91" width="4.67" height="4.67"/><rect class="cls-11" x="63.91" y="128.91" width="1.17" height="1.17"/><rect class="cls-11" x="66.25" y="131.25" width="1.17" height="1.17"/><rect class="cls-1" x="63.91" y="133.58" width="4.67" height="4.67"/><rect class="cls-11" x="63.91" y="133.58" width="1.17" height="1.17"/><rect class="cls-11" x="66.25" y="135.92" width="1.17" height="1.17"/><rect class="cls-1" x="63.91" y="138.26" width="4.67" height="4.67"/><rect class="cls-11" x="63.91" y="138.26" width="1.17" height="1.17"/><rect class="cls-11" x="66.25" y="140.59" width="1.17" height="1.17"/><rect class="cls-1" x="63.91" y="142.93" width="4.67" height="4.67"/><rect class="cls-11" x="63.91" y="142.93" width="1.17" height="1.17"/><rect class="cls-11" x="66.25" y="145.27" width="1.17" height="1.17"/><rect class="cls-1" x="59.24" y="91.53" width="4.67" height="4.67"/><rect class="cls-11" x="59.24" y="91.53" width="1.17" height="1.17"/><rect class="cls-11" x="61.58" y="93.87" width="1.17" height="1.17"/><rect class="cls-1" x="59.24" y="96.2" width="4.67" height="4.67"/><rect class="cls-11" x="59.24" y="96.2" width="1.17" height="1.17"/><rect class="cls-11" x="61.58" y="98.54" width="1.17" height="1.17"/><rect class="cls-1" x="59.24" y="100.87" width="4.67" height="4.67"/><rect class="cls-11" x="59.24" y="100.87" width="1.17" height="1.17"/><rect class="cls-11" x="61.58" y="103.21" width="1.17" height="1.17"/><rect class="cls-1" x="59.24" y="105.55" width="4.67" height="4.67"/><rect class="cls-11" x="59.24" y="105.55" width="1.17" height="1.17"/><rect class="cls-11" x="61.58" y="107.88" width="1.17" height="1.17"/><rect class="cls-1" x="59.24" y="110.22" width="4.67" height="4.67"/><rect class="cls-11" x="59.24" y="110.22" width="1.17" height="1.17"/><rect class="cls-11" x="61.58" y="112.56" width="1.17" height="1.17"/><rect class="cls-1" x="59.24" y="114.89" width="4.67" height="4.67"/><rect class="cls-11" x="59.24" y="114.89" width="1.17" height="1.17"/><rect class="cls-11" x="61.58" y="117.23" width="1.17" height="1.17"/><rect class="cls-1" x="59.24" y="119.57" width="4.67" height="4.67"/><rect class="cls-11" x="59.24" y="119.57" width="1.17" height="1.17"/><rect class="cls-11" x="61.58" y="121.9" width="1.17" height="1.17"/><rect class="cls-1" x="59.24" y="124.24" width="4.67" height="4.67"/><rect class="cls-11" x="59.24" y="124.24" width="1.17" height="1.17"/><rect class="cls-11" x="61.58" y="126.57" width="1.17" height="1.17"/><rect class="cls-1" x="59.24" y="128.91" width="4.67" height="4.67"/><rect class="cls-11" x="59.24" y="128.91" width="1.17" height="1.17"/><rect class="cls-11" x="61.58" y="131.25" width="1.17" height="1.17"/><rect class="cls-1" x="59.24" y="133.58" width="4.67" height="4.67"/><rect class="cls-11" x="59.24" y="133.58" width="1.17" height="1.17"/><rect class="cls-11" x="61.58" y="135.92" width="1.17" height="1.17"/><rect class="cls-1" x="59.24" y="138.26" width="4.67" height="4.67"/><rect class="cls-11" x="59.24" y="138.26" width="1.17" height="1.17"/><rect class="cls-11" x="61.58" y="140.59" width="1.17" height="1.17"/><rect class="cls-1" x="59.24" y="142.93" width="4.67" height="4.67"/><rect class="cls-11" x="59.24" y="142.93" width="1.17" height="1.17"/><rect class="cls-11" x="61.58" y="145.27" width="1.17" height="1.17"/></g><path class="cls-4" d="M90.2,147.67a.48.48,0,0,1-.26-.07l-15.26-9.39a.5.5,0,0,1-.17-.68,17.39,17.39,0,0,0-15.08-26.07h0a.5.5,0,0,1-.5-.5V93.05a.53.53,0,0,1,.52-.5,36.31,36.31,0,0,1,31.2,54.88.49.49,0,0,1-.31.23ZM75.61,137.6,90,146.48A35.31,35.31,0,0,0,59.91,93.55v16.91a18.42,18.42,0,0,1,17.91,18.39A18.23,18.23,0,0,1,75.61,137.6Z"/></svg>